<svg xmlns="http://www.w3.org/2000/svg" viewBox="0 0 305.5 367.19"><defs><style>.cls-1{fill:#303960;}.cls-2{fill:#262e4d;}.cls-3{fill:#49bfa3;}.cls-4{fill:#637cdf;}.cls-5{fill:#dec19a;}.cls-6{fill:#cfb58d;}.cls-7{fill:#78523c;}.cls-8{fill:#4d4d4d;}.cls-9{fill:#a39479;}.cls-10{fill:#d9e021;}.cls-11{fill:#e36a3d;}.cls-12{fill:#ff7745;}.cls-13{fill:#ccc;}.cls-14{fill:#333;}</style></defs><g id="Réteg_2" data-name="Réteg 2"><g id="Réteg_6" data-name="Réteg 6"><path class="cls-1" d="M219.79,248a880.35,880.35,0,0,1-8.9,119,277,277,0,0,1-35.1-1,280.44,280.44,0,0,1-76-18,344.21,344.21,0,0,0,19-57,342.79,342.79,0,0,0,8-49,109.74,109.74,0,0,0,5-33c-2.33,5.94-18.31,45.52-40,45-11.75-.28-20-12.19-30-27-29.18-43.27-44.53-69-53.15-82.8l.15-.2c4.6-5.89,14.64-7.39,23-2,10.83,11.69,21.89,24.34,33,38q11.16,13.71,21,27l40-51,37-8c8.6-6.48,25.86-17.67,49.46-21.08A880.15,880.15,0,0,1,219.79,248Z"/><path class="cls-2" d="M131.79,209a109.74,109.74,0,0,1-5,33c-4.14,5.25-17.87,21.45-35,20-3.78-.32-8.83-1.59-15-6-26.3-18.77-64.76-88.42-70-98-.27-.91-2.31-8.24,1.85-13.8,8.62,13.78,24,39.53,53.15,82.8,10,14.81,18.25,26.72,30,27C113.48,254.52,129.46,214.94,131.79,209Z"/><path class="cls-2" d="M219.79,248a880.15,880.15,0,0,0-7.54-121.08,92.92,92.92,0,0,1,9.54-.92,100.29,100.29,0,0,1,25,2l38,32a305.93,305.93,0,0,0-6,46c-.57,10.58-1.08,30.37,7,95,1.57,12.54,3.87,30,7,51a285.54,285.54,0,0,1-81.9,15A880.35,880.35,0,0,0,219.79,248Z"/><path class="cls-3" d="M253.79,171c-10.64,7-20.3,9.39-27,11A97.49,97.49,0,0,1,193,184.1a5.68,5.68,0,0,1-4.41,7.11,8.88,8.88,0,0,1-7.09-1.87c-.43,3.49-1,8.73-1.47,15.12-2.83,40.26,5.34,47-.74,65a57.6,57.6,0,0,1-6.25,12.85c0-1-.06-2.07-.11-3.15-.79-17.95-4.51-28.06-6.16-38.87-1.71-11.26-1.75-27.21,6.11-47-.77-.2-5.18-1.42-7.51-5.09a8.36,8.36,0,0,1-1.34-4.49L132,156.6l11.69-15.53L264.79,143l10,7A74.57,74.57,0,0,1,253.79,171Z"/><path class="cls-4" d="M190.48,193.77a12.08,12.08,0,0,1-5.23.68c.3,2.24.76,5.58,1.24,9.64,2.14,18.15,5.07,36.54,2.84,51.43a116.88,116.88,0,0,1-17,45.16,144.45,144.45,0,0,0,.75-18.4,57.6,57.6,0,0,0,6.25-12.85c6.08-18-2.09-24.71.74-65,.45-6.39,1-11.63,1.47-15.12a8.88,8.88,0,0,0,7.09,1.87A5.68,5.68,0,0,0,193,184.1q13.77-5.39,27.75-11.1,27.74-11.33,54-23,5,5,10,10l-54,24a28.47,28.47,0,0,1-9,6.15c-12.06,5.14-23.74-.07-26.22-1.25A8.64,8.64,0,0,1,190.48,193.77Z"/><polygon class="cls-2" points="154.4 125.94 252.35 124.76 182.06 173.29 154.4 125.94"/><path class="cls-5" d="M229.79,116l-.09,25-21,8.6a237.46,237.46,0,0,0-13.25-24.7c-11.07-18-16.83-27.06-28-30.22a37.66,37.66,0,0,0-16.1-.7,38.51,38.51,0,0,1-.59-4c-.34-2.24-.74-5.32-1-9a118,118,0,0,1,1-25c2.2-15.87,3.29-23.8,7-28,1.69-1.92,8.4-8.57,38.87-5.59,31.07,3,47.78,4.67,56.13,16.59C264.63,55.89,256.4,88.74,229.79,116Z"/><path class="cls-6" d="M208.69,149.57l-21.28,8.71q-2.81-17.64-5.62-35.28c-3-.56-16.58-3.44-25-16a36.31,36.31,0,0,1-5.41-13,37.66,37.66,0,0,1,16.1.7c11.13,3.16,16.89,12.22,28,30.22A237.46,237.46,0,0,1,208.69,149.57Z"/><path class="cls-1" d="M154.39,125.94l29,40.94,69-42.12L264.79,143l-71.35,44.19q-5.69-6.94-11.38-13.9l-12.79,9.56L150.7,139.71Z"/><path class="cls-7" d="M136.62,34c.75,1.61,3.1,6.62,6.7,10,4.32,4.06,10.86,5.82,32.61,3,22.86-3,25.31-6.22,32.6-4,6.1,1.83,14.52,7.14,22,24-.56-5.45,2.36-10.43,6.72-12,4.75-1.71,9.3,1.29,11.51,4,1.87,2.29,2.61,5,2.87,9,.87,13.28-4.83,23.28-4,23.74,1,.58,7.43-6.82,11.4-17.15A57.24,57.24,0,0,0,262.79,56l-3.42-25.09q1.92-5.68,3.86-11.38l-6.73-2.61q-1-6.51-1.91-13l-8.63,7-3.84-6-3.83,2a89.23,89.23,0,0,0-24.93-6C197.69-.46,189.44,3.13,174,4a120.9,120.9,0,0,1-37.4-4l8.69,7.24L134.71,10l7.4,5.65L132.79,19A41.76,41.76,0,0,0,136.62,34Z"/><path class="cls-8" d="M183.79,85a18.44,18.44,0,0,1,11-8c9.41-2.23,16.52,4.53,17,5a39.44,39.44,0,0,0-28,3Z"/><path class="cls-8" d="M145.15,79.38c.95-1.15,4.28-4.94,8.92-5.52,5.12-.65,9.8,2.86,12,8.94a22.16,22.16,0,0,0-10.18-4.35A23.92,23.92,0,0,0,145.15,79.38Z"/><path class="cls-9" d="M207.64,99.51c-.13,2.32-.74,10-4.35,13.87-4,4.23-10,2-15.4-5.57a14.49,14.49,0,0,0,11.21-.08C203.3,105.85,206.06,102.14,207.64,99.51Z"/><path class="cls-1" d="M303.44,188.74a72.68,72.68,0,0,0-4.65,9.26c-8.43,20.29-2.42,32-12,53-4.37,9.57-10.13,22.16-20,24-17.7,3.31-37.76-30-48-47-20.49-34-26.11-59.95-32.17-71.84a24.34,24.34,0,0,1,5.17-3.16,27,27,0,0,1,19-1l44,72c4-12.57,7.28-23.28,10-32a27.81,27.81,0,0,0,1-14,26.37,26.37,0,0,0-3-8l22-10a44.24,44.24,0,0,1,6,5C297.2,171.42,301.26,179.64,303.44,188.74Z"/><path class="cls-2" d="M294.79,255c-3.47,7.58-18.16,39.63-38,39-11.21-.35-19.44-11-31-29a627.73,627.73,0,0,1-49-93,29.21,29.21,0,0,1,9.83-15.84C192.68,168.05,198.3,194,218.79,228c10.24,17,30.3,50.31,48,47,9.87-1.84,15.63-14.43,20-24,9.58-21,3.57-32.71,12-53a72.68,72.68,0,0,1,4.65-9.26C308.54,209.87,303.6,235.76,294.79,255Z"/><ellipse class="cls-10" cx="131.98" cy="88.76" rx="3.8" ry="3.11" transform="translate(-7.7 12.69) rotate(-5.35)"/><path class="cls-11" d="M71.79,70a15.44,15.44,0,0,1,14-15l25,1a13.31,13.31,0,0,1,7,4c4.38,4.88,3.16,11.25,3,12Z"/><path class="cls-12" d="M37.79,67a22.37,22.37,0,0,0-20,15v62a16,16,0,0,0,4,8,16.68,16.68,0,0,0,12,5h116a17.58,17.58,0,0,0,10-5,17.86,17.86,0,0,0,5-12l-3-53a25.37,25.37,0,0,0-6-9,26.28,26.28,0,0,0-16-7Z"/><path class="cls-5" d="M12.13,155.33a154.7,154.7,0,0,1-9.74-31.48c-2.53-13-3.73-19.64-.13-25.95,4.33-7.63,15.31-14.43,24.4-10.06,8.88,4.27,11.05,16.3,8.61,24.75C32.22,123.17,22.22,127.42,20.79,128v23Z"/><path class="cls-5" d="M204.38,157.51a174.19,174.19,0,0,0-16.32-34.6c-8-13-12.2-19.62-20.27-21.91-9.74-2.76-24.57.71-29,12-4.36,11.11,3.83,23.5,12,28,5.88,3.24,9.32,1.07,15,4,8.66,4.47,12,15.37,13.38,24.13a34.24,34.24,0,0,0,10.48-1.4A28.48,28.48,0,0,0,204.38,157.51Z"/><path class="cls-11" d="M79.79,140h-27V84h27a30.13,30.13,0,0,1,0,56Z"/><ellipse class="cls-13" cx="52.29" cy="112.19" rx="23.5" ry="27.81"/><ellipse class="cls-14" cx="51.32" cy="111.93" rx="19.97" ry="23.63"/><ellipse class="cls-13" cx="121.29" cy="89.5" rx="9.5" ry="5.5"/><path class="cls-14" d="M90.37,58.61a2.9,2.9,0,0,0-1.59.1,1.34,1.34,0,0,0-.9,1.11l-.27,5.48a.88.88,0,0,0,.21.81,2.71,2.71,0,0,0,1.68.44c1.53,0,6.77.28,14,.67a2.25,2.25,0,0,0,1.35-.29,1.09,1.09,0,0,0,.54-1.12l-.14-4.71a1.49,1.49,0,0,0-.68-1.09,3,3,0,0,0-1.92-.45Z"/></g></g></svg>