<svg xmlns="http://www.w3.org/2000/svg" viewBox="0 0 520.81 624.1"><defs><style>.cls-1{fill:#ff7745;}.cls-2{fill:#e36a3d;}.cls-3{fill:#dec19a;}.cls-4{fill:#303960;}.cls-5{fill:#262e4d;}.cls-6{fill:#3c4057;}.cls-7{fill:#49bfa3;}.cls-8{fill:#637cdf;}.cls-9{fill:#ba7059;}.cls-10{fill:#ebd2b5;}.cls-11{fill:#4d4d4d;}.cls-12{fill:#ccc;}.cls-13{fill:#78523c;}.cls-14{fill:#543a2a;}.cls-15{fill:#a39479;}.cls-16{fill:#dbae8e;}</style></defs><g id="Réteg_2" data-name="Réteg 2"><g id="Réteg_3" data-name="Réteg 3"><path class="cls-1" d="M313.67,527.17c-2.88,3.45-5.34,11.38-6.86,16.27-4.4,14.15-2.09,20.95-5.56,42.22-2.34,14.35-4.38,17.37-5.83,19.13-6.75,8.17-20.29,12.66-28.58,8-7.69-4.31-7.61-14.67-9.36-21,1-2.71,2.69-5.49,7.48-14.33,5.32-9.81,8.21-14.62,9.18-17.35,7.6-21.23.49-32,8.2-38C289.6,516.47,304.79,519.09,313.67,527.17Z"/><path class="cls-2" d="M311.33,581.75c-7.09,22.83-10.95,34.32-21.73,39.42-9.87,4.66-24.72,4.1-31.11-4.19-5.84-7.57-2.72-19.16-1.7-23a22.39,22.39,0,0,1,.69-2.18c1.75,6.29,1.67,16.65,9.36,21,8.29,4.65,21.83.16,28.58-8,1.45-1.76,3.49-4.78,5.83-19.13,3.47-21.27,1.16-28.07,5.56-42.22,1.52-4.89,4-12.82,6.86-16.27a23.61,23.61,0,0,1,3.1,3.39C324.14,540.48,319.87,554.24,311.33,581.75Z"/><path class="cls-3" d="M123.27,348.2C82.65,335.8,50.53,333,27.81,332.89c-6.12,0-27.75-.07-27.81,3.3-.06,3.12,18.46,7.91,35.63,11.75A29,29,0,0,0,39,359.52c7.93,14.14,27.33,13.34,38.45,10.09,7.52-2.2,7.8-4.51,14.43-5.71,10.75-1.95,20.39,2.23,26.91,6.13Q121,359.11,123.27,348.2Z"/><path class="cls-4" d="M269.28,198.5a139.27,139.27,0,0,1-8.17,26.67,48.17,48.17,0,0,0-7.83-2.67,150.62,150.62,0,0,1-40,44c-19.57,14.21-36.76,19-44.94,23.32a14.54,14.54,0,0,1,.94-13.32c5.29-4.29,10.64-8.95,16-14a289.67,289.67,0,0,0,52-66Z"/><path class="cls-4" d="M402.14,589.35c-2.57.75-5.19,1.46-7.86,2.15a283.19,283.19,0,0,1-122,4,291.42,291.42,0,0,0,9-73,293.69,293.69,0,0,0-20-105q-3.36-.25-6.77-.55l4.32-36.22L111.42,363.17a48.64,48.64,0,0,1,8.86-22.67l138,22,9-13a122.65,122.65,0,0,1,21-14,125.4,125.4,0,0,1,50-14A252.74,252.74,0,0,1,380,335.19c-31.44,5.34-55.53,20.2-64.73,26.31a974.64,974.64,0,0,1,78,194Q398.13,572.71,402.14,589.35Z"/><path class="cls-4" d="M517.28,497.5c-7.49,7.08-25.51.23-40.39-7.51a239.88,239.88,0,0,1-22.61-13.49,36.45,36.45,0,0,0,6.83-7.43,35.15,35.15,0,0,0,2.17-3.57,36.27,36.27,0,0,0,4-13l-42-22c.14.38.28.75.43,1.13-30.72-29.48-58.23-50.87-53.43-57.13,6.15-8,57.83,18.53,86,33,16.91,8.69,30.81,16.78,41,23l.07,0a137.24,137.24,0,0,1,12.93,25C517.05,467.61,525.69,489.55,517.28,497.5Z"/><path class="cls-5" d="M372.28,374.5c-4.8,6.26,22.71,27.65,53.43,57.13q23.78,62.92,47.57,125.87a280.82,280.82,0,0,1-71.14,31.85q-4-16.62-8.86-33.85a974.64,974.64,0,0,0-78-194c9.2-6.11,33.29-21,64.73-26.31,1.74.73,3.49,1.5,5.27,2.31,5.53,2.51,30.4,14,61,39,18.92,15.43,38.41,31.52,53.07,54l-.07,0c-10.19-6.22-24.09-14.31-41-23C430.11,393,378.43,366.48,372.28,374.5Z"/><path class="cls-5" d="M258.83,380.73,254.51,417c-7.6-.66-15.35-1.46-23.23-2.45a621.39,621.39,0,0,1-116-26,48.41,48.41,0,0,1-4-24c0-.45.09-.89.14-1.33Z"/><path class="cls-6" d="M316.63,319.77a76.4,76.4,0,0,0,20.12,11.29q-4.42,1.77-9.47,3.44c-4.25,1.41-7.78,2.4-10,3C317.35,331.21,317.12,325.3,316.63,319.77Z"/><path class="cls-5" d="M446.28,287.5c-6,8.65-15.94-1-42,7-26.36,8.06-35.45,23.79-67.53,36.56a76.4,76.4,0,0,1-20.12-11.29c-3-35-16-55.09-24.35-65.27a102.31,102.31,0,0,0-8.75-9.4c.66-7.63,2.92-13.6,6.75-16.6,8.9-7,22.5,5.07,48,0,17.06-3.39,29.56-12.47,37-19,2.8,7.48,8,17.46,18,24,6.21,4,9.67,3.76,22,8,6.78,2.32,12.52,4.3,17.42,6.36C447.82,276.46,449.72,282.49,446.28,287.5Z"/><path class="cls-6" d="M270.88,234.55c8.06-.64,14.18-2.12,17.24-3.83-2.53,3.31-4.07,8.32-4.59,14.38A136.49,136.49,0,0,0,270.88,234.55Z"/><path class="cls-4" d="M432.7,247.86c-4.9-2.06-10.64-4-17.42-6.36-12.33-4.24-15.79-4-22-8-10-6.54-15.2-16.52-18-24-7.44,6.53-19.94,15.61-37,19-25.5,5.07-39.1-7-48,0,1.1-6.48-44.92-8.49-84-47a151.67,151.67,0,0,1-25-32.59l15-12.41q10.42,6.36,21,13,12.74,8,25,16c.34-7.89,2.18-19.62,10-30,18.08-24,55.82-24.42,80-16,20,7,32,20.4,45,35,11.41,12.78,18.27,24.18,30,46C418.27,221,426.57,236.26,432.7,247.86Z"/><path class="cls-5" d="M290.28,228.5a12,12,0,0,0-2.16,2.22c-3.06,1.71-9.18,3.19-17.24,3.83-5.7-4.24-11.62-8.13-17.6-12.05-29.71-19.51-48.19-22.26-66-44a98,98,0,0,1-14-23l8-6.59a151.67,151.67,0,0,0,25,32.59C245.36,220,291.38,222,290.28,228.5Z"/><path class="cls-5" d="M261.11,225.17a125.87,125.87,0,0,1-72.83,70.33c-7,3.67-15.24,1.62-19-4a12.61,12.61,0,0,1-.94-1.68c8.18-4.33,25.37-9.11,44.94-23.32a150.62,150.62,0,0,0,40-44A48.17,48.17,0,0,1,261.11,225.17Z"/><path class="cls-7" d="M360.24,377.71l-47,18.79a6.32,6.32,0,0,1-2,8,6.05,6.05,0,0,1-6,0c.39,3.49,1,8.71,2,15,6.18,39.64,14,44,13,63a68.62,68.62,0,0,1-2.26,14c-.23-1-.48-2-.74-3-4.38-17.15-9.44-26-13-36-3.71-10.45-7.08-25.86-5-47a9.55,9.55,0,0,1-7-3,8.91,8.91,0,0,1-2-4l-31-18,6-18,101-26Q363.27,359.61,360.24,377.71Z"/><path class="cls-8" d="M313.28,406.5a9,9,0,0,1-4,2c.71,2.08,1.77,5.2,3,9,5.49,17,11.65,34,13,49a141.71,141.71,0,0,1-4,48,172.14,172.14,0,0,0-3.26-18,68.62,68.62,0,0,0,2.26-14c1-19-6.82-23.36-13-63-1-6.29-1.61-11.51-2-15a6.05,6.05,0,0,0,6,0,6.32,6.32,0,0,0,2-8l47-18.79q-1,5.9-2,11.79l-42,11A9.26,9.26,0,0,1,313.28,406.5Z"/><path class="cls-1" d="M406.28,364.5a216.27,216.27,0,0,1-15.78,22.56c-6-8.06-12.28-13.44-18.22-12.56-12.2,1.8-16.06,28.93-20,28-2.89-.68-1.39-21.76,6-43a156.05,156.05,0,0,1,8.12-18.76c.75-1.35,1.41-2.46,1.88-3.24a70.76,70.76,0,0,0-76.53,17.07l-.44-.58-55.77,42.3,13.31,17.56c-16.35,5.23-31.82.32-37.57-9.35-4.46-7.5-2.89-18.49,1-26s9.83-11.12,16-15c31.12-19.58,25.36-18.92,39-26,41.39-21.49,62.18-10.83,100-31s48.1-47.54,64-42a106.73,106.73,0,0,1,2,15C435.57,316.38,417.89,345.43,406.28,364.5Z"/><path class="cls-9" d="M291.75,354.57c-22.65,21.74-30.92,51.8-31.47,53.93a49.86,49.86,0,0,1-11.43,5.35l-13.31-17.56L291.31,354Z"/><path class="cls-2" d="M431.28,365.5a244.75,244.75,0,0,1-28,43,153.33,153.33,0,0,0-12.78-21.44,216.27,216.27,0,0,0,15.78-22.56c11.61-19.07,29.29-48.12,27-85a106.73,106.73,0,0,0-2-15h0c14.38,5,17.18,31.3,18,39C451.69,326.08,442.42,343.62,431.28,365.5Z"/><path class="cls-1" d="M479.28,597.5c-4.07,9.78-15.71,18-25,16-4.45-1-7.39-4.09-9.68-7.64-.63-1.81-1.05-3.35-1.32-4.36-1-3.86-.85-5.74-1.23-18.38-.33-11.16-.24-16.77-.77-19.62-4.08-22.17-15.65-27.93-12-37,3.88-9.64,21.81-15.24,34-10a19.85,19.85,0,0,1,9.36,8.6c-.33,3.61-.34,7.51-.36,10.4-.08,14.81,4.11,20.64,7,42C481.23,591.91,480.15,595.4,479.28,597.5Z"/><path class="cls-10" d="M360.28,379.5c-8.25,7.07-7.6,18.86-8,23-1.92,19.94,14.76,35.37,19,40,16.24,17.72,37.91,47.58,68,102a28.3,28.3,0,0,0,14-1,28.89,28.89,0,0,0,15-12,427.88,427.88,0,0,0-48-99c-5.58-8.5-11.28-16.49-17-24,1.08-3,3.45-10.92,0-19-5.24-12.29-20.35-16.56-31-15A22.85,22.85,0,0,0,360.28,379.5Z"/><path class="cls-7" d="M365.84,141.58a40.82,40.82,0,0,0-10.56-1.08,120.47,120.47,0,0,1-64,46c-.17,1.59-.35,3.17-.53,4.76a24.14,24.14,0,0,1-3.47-.76l-17-8-31-19a33.83,33.83,0,0,1,10-22l91-19a60.54,60.54,0,0,1,18,11A59.77,59.77,0,0,1,365.84,141.58Z"/><polygon class="cls-5" points="248.08 131.3 337.25 114.53 282.12 168.11 248.08 131.3"/><polygon class="cls-5" points="269.06 335.18 360.53 323.83 299.35 381.3 269.06 335.18"/><path class="cls-10" d="M282.12,162.31l-7.32-25.57a67.13,67.13,0,0,1-26.93-11.53,68.75,68.75,0,0,1-18.8-20.57c-2.75,1.34-6.25,2.46-8.91,1-5.12-2.89-2.51-12.77-4.44-28.94-2.16-18.19-7.12-19.58-4.73-25.77C215.88,38.16,239.76,36.4,259.18,35c20.79-1.53,31.24-1.5,38.17,2.83,18.46,11.51,21.56,49,6.93,91.7l16,2Z"/><path class="cls-11" d="M239.1,79c.59-1.38,2.73-5.94,7-7.79,4.74-2,10.21,0,14,5.26a22.25,22.25,0,0,0-11-1.34A23.71,23.71,0,0,0,239.1,79Z"/><path class="cls-12" d="M115.11,69.7c-7.57,4.55-11.76,12.62-10.83,20.8s6.8,15.07,15.13,17.91L240.84,83.93c4.37-.93,7.46-4.5,7.43-8.39,0-4.29-3.83-8-8.77-8.24Z"/><path class="cls-10" d="M177.31,155.92c-5.81-6.73-13.53-15.74-22.58-26.52-10.23-12.19-13.84-16.71-13.67-23.27.18-7.52,5.24-15.21,11.67-17.51,12.12-4.34,28.24,10.78,31,24.68,1.08,5.46-.84,8.64,1.37,14.21,2.77,7,9,10.87,13.65,13a31.18,31.18,0,0,1-5.94,7.74A29.57,29.57,0,0,1,177.31,155.92Z"/><path class="cls-3" d="M470.48,449.74C462,445,450.55,438.68,437,431.33c-15.4-8.33-21.07-11.21-28.39-10-8.38,1.44-16.13,7.83-17.62,14.72-2.79,13,16.88,26.76,32.92,27.22,6.29.18,9.52-2.3,16.14-1,8.29,1.64,13.7,7.29,16.91,11.63a34.15,34.15,0,0,0,7.66-7.28A28.53,28.53,0,0,0,470.48,449.74Z"/><path class="cls-3" d="M304.28,372.5v-34a67.58,67.58,0,0,1-38-41c-3,.71-6.7,1-9-1-4.4-3.9.34-12.91,2-29,1.87-18.1-2.71-20.52,1-26,7.63-11.28,31.55-7.81,51-5,20.37,2.95,30.56,4.42,37,11,14.25,14.55,9.76,48-11,82l9,25Z"/><path class="cls-13" d="M245.28,244.5c2.16,1.49,7.26,4.39,30,1,20.9-3.11,25.27-6.83,32-4,5.27,2.21,11.62,8.27,15,26,3.56-7.48,9.24-11.8,14-11s7.46,6.75,8,8c4.55,10.42-3.46,17.81,0,32,.47,1.9,2.16,8.71,5,9,5.13.53,10.74-18.17,11-19,6.19-19.61,1.9-37.19-1-46q2-6,4-12l-9,7q.51-9,1-18l-9,11-3-12q-2,3-4,6a111.54,111.54,0,0,0-31-7c-14-1.09-20.26,1.05-33,0a90.94,90.94,0,0,1-34-10q3.51,6,7,12l-9-4,6,13-9-1C236.9,231.53,238.78,240,245.28,244.5Z"/><path class="cls-10" d="M210.28,390.5c-4.9,5.81-2,17.8,2,25a33.29,33.29,0,0,0,10,11c9.39,6.59,26.45,32.22,59,104,7-37.29,2.24-66.26-2-83-4.85-19.18-10.44-40-29-52C237.33,387.14,217.07,382.46,210.28,390.5Z"/><ellipse class="cls-6" cx="115.93" cy="88.93" rx="8.42" ry="12.68" transform="translate(-5 6.92) rotate(-3.35)"/><path class="cls-4" d="M248.08,131.3l34,31,55.13-47.78,13,12-56,54-12.16-12.39h0l-12.27,12.27-22.58-36.49Z"/><path class="cls-4" d="M269.06,335.17,300,374.53l60.56-50.7,11.75,17.95-61,52.72-11.93-13.2-11.07,11.2-21.39-42.7Z"/><path class="cls-8" d="M367.28,143.5c-31.95,26.12-56.65,43.54-63,46a30.36,30.36,0,0,1-11,2,23.17,23.17,0,0,1-2.53-.24c.18-1.59.36-3.17.53-4.76a120.47,120.47,0,0,0,64-46,40.82,40.82,0,0,1,10.56,1.08Q366.62,142.57,367.28,143.5Z"/><path class="cls-14" d="M304.28,129.5c8.28,9.81,18.62,3.58,40,11,27.39,9.51,36.6,28.83,41,26,5.36-3.45-3-34.51-45-102C311.93,18.94,297.7,8,289.05,4.09a35.65,35.65,0,0,0-3.38-1.28c-36.9-12.47-84.73,19.32-83.39,41.69.23,3.72,1.94,9.37,10,16a21.33,21.33,0,0,1,16.17-19,19.19,19.19,0,0,1,4.52-.27A50.59,50.59,0,0,1,249,43.88c18.39,5.86,26,16.58,40.26,15.62,7-.47,9.85-3.34,14-1,5.32,3,7.3,11.43,6,18-1.17,5.91-4.68,8.74-7,12C294.17,100,296.17,119.88,304.28,129.5Z"/><path class="cls-10" d="M175.37,276.58c-5.92,4.46-13.81,10.45-23.12,17.64-10.52,8.15-14.29,11.2-15.89,16.72-1.84,6.31-.24,13.75,3.76,17,7.54,6.05,23-3.37,28.65-14.44,2.2-4.34,1.66-7.38,4.71-11.6,3.81-5.28,9.29-7.28,13.19-8.16,2.07-5.27,1.07-11-2.43-14.31A11.42,11.42,0,0,0,175.37,276.58Z"/><path class="cls-11" d="M282.5,273.37c.95-1.16,4.27-4.94,8.91-5.53,5.13-.65,9.8,2.86,12,8.94a22.05,22.05,0,0,0-10.19-4.34A23.88,23.88,0,0,0,282.5,273.37Z"/><path class="cls-11" d="M251.33,276.18c.58-1.38,2.67-6,6.94-7.87,4.72-2.1,10.21-.1,14,5.09a22.21,22.21,0,0,0-11-1.21A24,24,0,0,0,251.33,276.18Z"/><path class="cls-15" d="M303.67,291.92c.64,2.23,2.64,9.71.52,14.53-2.33,5.32-8.75,5.26-16.37-.11a14.47,14.47,0,0,0,10.53-3.82C301.69,299.35,303.06,294.93,303.67,291.92Z"/><path class="cls-16" d="M268.38,100.1c-.56,2.32-2.65,10-8.16,13.71-6.09,4-13.91,1.53-20-6.37a26,26,0,0,0,15.21.48A29.93,29.93,0,0,0,268.38,100.1Z"/><path class="cls-2" d="M485.28,608.5c-6.19,9-19.31,16-29,12-6.51-2.66-9.92-9.63-11.68-14.64,2.29,3.55,5.23,6.67,9.68,7.64,9.29,2,20.93-6.22,25-16,.87-2.1,2-5.59,0-20-2.89-21.36-7.08-27.19-7-42,0-2.89,0-6.79.36-10.4,4.62,7.72,7.44,20.07,11.64,38.4C489.61,586.8,492,598.68,485.28,608.5Z"/></g></g></svg>