<?xml version="1.0" encoding="utf-8"?>
<!-- Generator: Adobe Illustrator 25.2.3, SVG Export Plug-In . SVG Version: 6.00 Build 0)  -->
<svg version="1.1" id="Layer_1" xmlns="http://www.w3.org/2000/svg" xmlns:xlink="http://www.w3.org/1999/xlink" x="0px" y="0px"
	 viewBox="0 0 286.8 310" style="enable-background:new 0 0 286.8 310;" xml:space="preserve">
<style type="text/css">
	.st0{fill:#49BFA3;}
	.st1{fill:#18775E;}
</style>
<g id="Group_109" transform="translate(-270.556 14.215) rotate(-24)">
	<g id="Layer_3" transform="translate(219.322 172.582)">
		<path id="Path_298" class="st0" d="M182,37.2c-8.4-3.6-16.5-6.8-24.2-9.5c-13.9,18.9-23.1,40.8-27.1,64
			c-3.4-25.2,4.9-50.7,22.5-69c-9.2-4.1-19.7-4.3-29-0.6C112.2,47,108,62.9,106.5,73c-1.5,10.7-3.8,21.3-7,31.6
			c-1.1,3.6-2.2,6.6-2.9,8.6c-2-3.1-3.4-6.4-4.3-9.9c-2.3-9-0.4-17.5,8.3-37.8c3.6-8.4,8.4-19,14.7-31.2c-7.3-3.3-15.7-3.5-23.2-0.7
			c-6.4,2.5-11.8,7.2-15.2,13.2c-3.5,6.2-6,12.9-7.3,20c-3.6,19.6,3.2,37.1-0.9,53.2c-0.5,2-1.4,4.8-3.2,5.2
			c-3.2,0.7-7.4-7.1-9.1-10.6l-4.4-27.3l-1.3-30.6C45.7,57.4,40.7,59,36,61c-6.8,3-13,7.1-18.6,12.1c-11.2,9.9-19,23-22.3,37.6
			c-2.8,13-1.8,26.5,2.8,38.9c12.3,12.8,29.7,19.6,47.5,18.5c-18,17.3-21.3,44.9-7.8,65.9c2.7,2.5,25.1,22.7,55.7,17.4
			c20.4-3.5,32.9-16.4,36.9-20.8c-10.8-5.4-20.8-12.4-29.4-20.9c-11.3-11.1-19.3-24.5-18-25.6c0.9-0.8,5.5,4.5,17.7,13.5
			c6.9,5.1,14.1,9.9,21.5,14.2c8.5,4.9,17.3,9,26.5,12.5c16.4-9,30.5-21.7,41.2-37.1c-14.1,2.6-28.7,2-42.5-1.7
			c-26.3-7.2-45.5-25.3-44.1-28c1.3-2.4,18.4,8.8,47.2,14.1c16.4,3,33.2,3.6,49.8,1.6c8.4-11.2,14.1-24.1,16.5-37.9
			c-11.3,6.3-23.9,9.9-36.9,10.7c-9.6,0.5-25,1.4-38.8-8.3c-3.9-2.7-7.3-6-10.1-9.7c3.4-1.1,6.8-1.9,10.3-2.4
			c17.5-2.4,27.7,4,41.8,5.6c7.7,0.9,19,0.5,33.2-5.5c2.5-7.3,3.5-14.9,3.1-22.6c-0.2-4-0.8-7.9-1.8-11.7
			c-20.3,14.8-46,20-70.5,14.2c31.2-7.8,38.8-10.1,38.8-10.1c10.7-3.3,21.3-7.1,31.6-11.4c-7.7-10.8-12.3-23.4-13.3-36.6
			C197.2,44,189.8,40.6,182,37.2z"/>
	</g>
	<path id="Path_299" class="st1" d="M222,386.8c1.2-1.4,1.7-1.9,17.3-16.5c17.7-16.6,18-16.8,17.8-17c-1.6-2.4-41.7,27.8-56,43.1
		c0,0-7.3,7.8-5.4,10.4c0.9,1.2,3.6,0.2,5.7,2.2c1.4,1.4,1.1,2.7,1.8,3C205.7,412.9,211.4,399.3,222,386.8z"/>
</g>
</svg>
