<svg xmlns="http://www.w3.org/2000/svg" width="263.447" height="326.988" viewBox="0 0 263.447 326.988">
  <g id="Group_108" data-name="Group 108" transform="matrix(0.899, 0.438, -0.438, 0.899, -297.327, -377.791)">
    <g id="Layer_2" data-name="Layer 2" transform="translate(537.858 158)">
      <path id="Path_339" data-name="Path 339" d="M628.577,419.08c2.066,1.4,10.668,6.861,21.885,4.991,10.826-1.805,16.848-10.43,23.42-19.581,5.345-7.442,10.107-14.072,9.982-23.036-.107-7.695-3.717-10.136-1.536-15.358,1.93-4.62,5.775-5.143,12.67-12.67a63.344,63.344,0,0,0,5.759-7.295V319.524a60.351,60.351,0,0,0-.384-13.707,61.223,61.223,0,0,0-8.063-22.652c1.486-3.485,2.913-8.5,1.536-13.822-.828-3.2-2.314-5.146-4.223-8.063a109.055,109.055,0,0,1-8.831-16.509,38.391,38.391,0,0,0-5.375-19.965c-3.665-5.927-5.8-5.217-10.75-11.537-9.436-12.042-7.664-22.242-15.358-25.222a12.554,12.554,0,0,0-8.341,0L622.434,158a143.756,143.756,0,0,1-16.126,18.429c-4.349,4.195-6.347,5.6-9.6,8.831A85.459,85.459,0,0,0,580.2,208.68q-1.535,8.446-3.072,16.893a36.9,36.9,0,0,0-15.358,28.412c-6.225,1.458-8.792,4.039-9.982,6.143-1.368,2.419-.756,3.922-2.688,6.527-2.358,3.181-4.645,2.792-6.143,5.375-1.481,2.556-.526,5.147,0,8.447a36.475,36.475,0,0,1-1.152,15.742c-.224.229-5.567,5.9-3.456,13.438,2.052,7.326,9.2,9.486,9.6,9.6,1.567,7.621.289,12.608-1.152,15.742-1.871,4.07-4.385,5.814-4.991,10.286-.587,4.326,1.077,7.771,1.92,9.679,2.271,5.139,4.789,13.155,5.759,25.724a117.416,117.416,0,0,0,29.947,34.555,45.889,45.889,0,0,0,21.117,8.831A46.425,46.425,0,0,0,628.577,419.08Z" transform="translate(-537.858 -158)" fill="#a1d06a"/>
    </g>
    <g id="Layer_3" data-name="Layer 3" transform="translate(620.369 207.144)">
      <path id="Path_340" data-name="Path 340" d="M653.814,547.612c.453,1.347,2.245,2.049,4.463,1.65,3.1-.558,7.686-3.387,8.245-6.254a34.4,34.4,0,0,1-12.028-9.527c-10.273-13.54-1.776-30.514,3.347-38.781l-6.853,4.178c-5.453,12.626-8.752,28.1-1.5,42.133A39.218,39.218,0,0,0,653.814,547.612Z" transform="translate(-645.31 -285.299)" fill="#55956f"/>
      <path id="Path_341" data-name="Path 341" d="M652,222" transform="translate(-646.863 -222)" fill="#237c5a"/>
      <path id="Path_342" data-name="Path 342" d="M666.847,392.385c7.785-54.695.438-101.942-8.305-135.852a622.714,622.714,0,0,1-1.07,138.387C652.576,435.925,661.093,432.812,666.847,392.385Z" transform="translate(-647.794 -230.016)" fill="#55956f"/>
      <line id="Line_13" data-name="Line 13" y1="1.594" x2="3.324" transform="translate(4.884 211.935)" fill="#237c5a"/>
    </g>
  </g>
</svg>
