<svg id="Layer_1" data-name="Layer 1" xmlns="http://www.w3.org/2000/svg" viewBox="0 0 849.78 120.44"><defs><style>.cls-1,.cls-2,.cls-3{isolation:isolate;}.cls-2,.cls-3{font-size:76.05px;font-family:SansitaSwashed-Bold, Sansita Swashed;font-weight:700;}.cls-2,.cls-3,.cls-4{fill:#303960;}.cls-3{letter-spacing:0.02em;}</style></defs><g id="Group_34" data-name="Group 34"><g id="Vesterhavsgruppen"><g class="cls-1"><text class="cls-2" transform="translate(152.18 94.15)">V</text><text class="cls-3" transform="translate(197.13 94.15)">esterhavsgruppen</text></g></g><g id="Group_19" data-name="Group 19"><g id="Group_12" data-name="Group 12"><path id="Path_239" data-name="Path 239" class="cls-4" d="M65.59,120.4a40.1,40.1,0,0,1-9.76-1.17,31.27,31.27,0,0,1-7.18-2.76c-1.87-.91-4.2-2-8.27-3.71a99.83,99.83,0,0,0-11.9-4.05,18.27,18.27,0,0,1-8.18-3.83c-4.16-3.57-5-7.51-8.35-24.07-2.26-11-3.74-18.47-4.82-23.9-2.26-11.36-2.39-12-3.47-14.64-.26-.63-.52-1.24-.77-1.83A26.6,26.6,0,0,1,0,29C0,17.14,8.59,9.44,10.31,8,18.92.87,23.69,2.48,25.25,3a10.67,10.67,0,0,1,5.37,4.63c.31.41.65.87,1,1.37,2.14,2.79,6.45,7,15,15.26,2,1.94,3.35,3.18,4.33,4.09a23.71,23.71,0,0,1,3.79,4.09,39.25,39.25,0,0,1,6.19,14.06,249.52,249.52,0,0,1,5.66,33.7c.08.87.16,1.7.23,2.5.74,8.08,1.2,12,3.63,13.47a11.38,11.38,0,0,0,2.92,1.12,10.85,10.85,0,0,1,5.68,3.14c3.06,3.41,3.45,8.89,1.14,16.29l-.48,1.56-1.57.41A49.69,49.69,0,0,1,65.59,120.4ZM22.17,8.4c-2.06,0-4.78,1.4-8.11,4.16-.84.69-8.17,7-8.17,16.49a21.06,21.06,0,0,0,2.4,9.13c.26.61.53,1.23.8,1.9,1.3,3.12,1.49,4.07,3.81,15.73,1.07,5.42,2.55,12.83,4.8,23.87,3.31,16.2,3.95,18.67,6.43,20.8a13.1,13.1,0,0,0,5.93,2.63,102.58,102.58,0,0,1,12.53,4.24c4.26,1.73,6.79,3,8.64,3.87a26.38,26.38,0,0,0,6,2.33,38.11,38.11,0,0,0,17.8-.11c1.14-4.35,1-7.54-.36-9.08a5.33,5.33,0,0,0-2.9-1.41,16.94,16.94,0,0,1-4.34-1.72c-5.1-3-5.64-9-6.46-18-.07-.8-.15-1.63-.23-2.49a244.54,244.54,0,0,0-5.47-32.82,33.27,33.27,0,0,0-5.21-12.06,17.3,17.3,0,0,0-3-3.22c-1-.93-2.37-2.2-4.43-4.18C33.85,20,29.45,15.69,27,12.57L26,11.13c-1.45-1.94-1.79-2.34-2.55-2.59a3.9,3.9,0,0,0-1.22-.2Z" transform="translate(-0.01 0.04)"/></g><path id="Path_240" data-name="Path 240" class="cls-4" d="M6.35,21.51a21.46,21.46,0,0,0,.53,3.74,8.72,8.72,0,0,0,1.3,3,6,6,0,0,0,1,1.08,4.58,4.58,0,0,0,1.13.71,26.26,26.26,0,0,0,3.58,1.06,17,17,0,0,1,4.58,2,8.83,8.83,0,0,1,1,.71c.3.24.66.51,1,.79a11,11,0,0,1,1.68,1.92,19,19,0,0,1,1.17,2,3.49,3.49,0,0,0,.77,1.13l.23.17.29.16c.21.08.42.15.64.21a4.22,4.22,0,0,0,1.37.11,11.26,11.26,0,0,0,3.35-1c1.23-.53,2.51-1.2,4.07-1.74a16.36,16.36,0,0,1,4.85-.89,21.29,21.29,0,0,1,4.78.39,26.61,26.61,0,0,1,4.47,1.3,36.56,36.56,0,0,1,4.12,1.9A28.28,28.28,0,0,1,56,42.63a24.19,24.19,0,0,1,3.31,2.92L56.92,48.8c-.65-.27-1.25-.6-1.86-.92l-.9-.48-.9-.49c-.58-.34-1.18-.64-1.76-1l-1.75-1a31.28,31.28,0,0,0-7.17-2.85,16.27,16.27,0,0,0-3.61-.5,12,12,0,0,0-3.48.46c-1.13.33-2.4.88-3.77,1.43A16.8,16.8,0,0,1,27,44.7a8.36,8.36,0,0,1-2.82-.23,9,9,0,0,1-2.68-1.17,11.24,11.24,0,0,1-2.15-1.92c-.44-.48-.9-.94-1.38-1.37s-.85-.72-1.29-1.08a16.52,16.52,0,0,0-1.37-1,11.82,11.82,0,0,0-3.08-1.48c-.58-.2-1.24-.38-2-.63a13.22,13.22,0,0,1-2.43-1,10.26,10.26,0,0,1-4-4,13,13,0,0,1-1.52-4.9,20.43,20.43,0,0,1,0-4.69Z" transform="translate(-0.01 0.04)"/><g id="Group_13" data-name="Group 13"><path id="Path_241" data-name="Path 241" class="cls-4" d="M79.53,118.93a20.8,20.8,0,0,1-2.49-.15l.68-5.83a7.81,7.81,0,0,0,6.16-1.16c1.71-1.52,1.79-4.55,1.86-7.48a17.35,17.35,0,0,1,.06-1.79,46.25,46.25,0,0,1,8.64-23.63l4.85,3.29a40.65,40.65,0,0,0-7.64,20.63c0,.53,0,1.08-.05,1.65-.1,3.8-.22,8.51-3.83,11.72A12.05,12.05,0,0,1,79.53,118.93Z" transform="translate(-0.01 0.04)"/></g><g id="Group_14" data-name="Group 14"><path id="Path_242" data-name="Path 242" class="cls-4" d="M118.31,113.17a8.44,8.44,0,0,1-2.64-.43c-3.18-1.09-4.19-3.84-5.36-7-.3-.81-.61-1.64-1-2.56-2.74-6.74-6.22-11-10.63-16.31A57.37,57.37,0,0,0,84.45,74.66l3.07-5A62.85,62.85,0,0,1,103.2,83.14,64.82,64.82,0,0,1,114.74,101c.41,1,.75,1.93,1.05,2.75.65,1.78,1.22,3.32,1.75,3.5,2,.67,5.9-1.76,8.22-4.37,1.33-1.51,2-2.32,2-2.87s-1.74-1.71-3.59-2.82a47.78,47.78,0,0,1-10-7.55A34.45,34.45,0,0,1,110.34,85a94.7,94.7,0,0,0-6.23-7.75,65.79,65.79,0,0,0-7.74-7.74A51.8,51.8,0,0,1,89.83,63c-2.32-2.7-4.21-5.26-5.89-7.51-2.85-3.85-5.32-7.17-7-7a1.89,1.89,0,0,0-.41.1,49,49,0,0,1-15,11.24L59,54.51A43.05,43.05,0,0,0,72.59,44.22l.33-.38.43-.24a8,8,0,0,1,2.93-1c5.07-.61,8.32,3.76,12.43,9.3,1.61,2.18,3.44,4.64,5.63,7.19A47.14,47.14,0,0,0,100.25,65a71.06,71.06,0,0,1,8.32,8.32c2.32,2.6,4.51,5.33,6.56,8.15a29.36,29.36,0,0,0,3.26,4,42.13,42.13,0,0,0,8.83,6.66c3.33,2,6.46,3.91,6.42,7.91,0,2.76-1.65,4.58-3.53,6.69C127.82,109.35,123.06,113.17,118.31,113.17Z" transform="translate(-0.01 0.04)"/></g><g id="Group_15" data-name="Group 15"><path id="Path_243" data-name="Path 243" class="cls-4" d="M79.78,102.4H73.92a66.79,66.79,0,0,1,1.47-13.81A68,68,0,0,1,89.91,59.18l4.5,3.75A62.16,62.16,0,0,0,81.12,89.82,61.16,61.16,0,0,0,79.78,102.4Z" transform="translate(-0.01 0.04)"/></g><g id="Group_16" data-name="Group 16"><path id="Path_244" data-name="Path 244" class="cls-4" d="M103.59,69.33l-5.84-.51a52.17,52.17,0,0,1,4.42-17.31c.8-1.74,1.55-3.09,2.28-4.4a37.9,37.9,0,0,0,3.24-7.1c1.77-5.25,2.47-7.49,2-10.18-1-5.73-6.61-9.46-9.3-11.26a18.52,18.52,0,0,0-6.34-2.81,23.54,23.54,0,0,1-8.71-4.12,43.14,43.14,0,0,1-3.91-3.22,7.82,7.82,0,0,0-4-2.45A10.81,10.81,0,0,0,69.6,7.56a38,38,0,0,0-4.47,7c-2.22,4-3.74,7.12-3.8,7.25-2.12,4.36-4.22,8.9-6.24,13.5L49.72,33c2.05-4.66,4.18-9.27,6.34-13.69.16-.34,1.68-3.44,3.94-7.53,3.74-6.76,5-8,6.08-8.84A16.71,16.71,0,0,1,78.67.26a13.39,13.39,0,0,1,6.66,3.83,38.12,38.12,0,0,0,3.4,2.81,18.17,18.17,0,0,0,6.84,3.22,24.33,24.33,0,0,1,8,3.58c3.1,2.08,10.39,6.93,11.82,15.14.74,4.26-.38,7.57-2.23,13.05a43.34,43.34,0,0,1-3.68,8c-.7,1.27-1.36,2.46-2.07,4A46.54,46.54,0,0,0,103.59,69.33Z" transform="translate(-0.01 0.04)"/></g><g id="Group_17" data-name="Group 17"><path id="Path_245" data-name="Path 245" class="cls-4" d="M96.25,38.66a7,7,0,0,1-1.93-.21c-3.52-.92-5.23-3.33-7.22-6.12-.47-.66-.95-1.35-1.51-2.07a33.46,33.46,0,0,0-9-9.13A27,27,0,0,0,74,19.73a22.06,22.06,0,0,1-5.59-3.67A26.62,26.62,0,0,1,64,10.9l4.93-3.18a20.15,20.15,0,0,0,3.37,4,16.46,16.46,0,0,0,4.3,2.79,31.23,31.23,0,0,1,3,1.66A38.68,38.68,0,0,1,90.23,26.75c.61.79,1.15,1.55,1.62,2.21,1.71,2.41,2.52,3.48,3.92,3.85a18.83,18.83,0,0,0,2.49-.07h.38c3.84-.22,6-.34,7-.93,2.23-1.29,2.75-5.12,2.86-6.27l5.87.54c-.27,3-1.39,8.26-5.74,10.79-2.23,1.3-4.84,1.44-9.58,1.71h-.38C97.67,38.62,96.9,38.66,96.25,38.66Z" transform="translate(-0.01 0.04)"/></g><g id="Group_18" data-name="Group 18"><path id="Path_246" data-name="Path 246" class="cls-4" d="M89.29,56l-4.85-3.3A39,39,0,0,0,91,34.88l5.83.63A44.77,44.77,0,0,1,89.29,56Z" transform="translate(-0.01 0.04)"/></g><path id="Path_247" data-name="Path 247" class="cls-4" d="M70.16,22.84a35.63,35.63,0,0,1-1.26,7.31c-.33,1.2-.71,2.38-1.15,3.56s-.94,2.32-1.41,3.4-1,2.08-1.45,3.09-1,2-1.43,3.06a23,23,0,0,0-1.05,3.23,25.26,25.26,0,0,0-.65,3.34l-5.7-1.33c.39-1.21.79-2.41,1.21-3.6s.87-2.36,1.3-3.55A37.11,37.11,0,0,1,60,37.83a19.74,19.74,0,0,1,1.93-3.25l2.12-2.85c.69-.94,1.36-1.9,2-2.87C67.46,26.91,68.77,24.89,70.16,22.84Z" transform="translate(-0.01 0.04)"/><path id="Path_248" data-name="Path 248" class="cls-4" d="M37.67,38.92c.3,2,.62,4.06.89,6.08s.49,4,.66,6,.29,4,.36,6c0,1,0,2,.07,3s.14,2,.26,3,.23,2,.33,2.91.15,1.92.21,2.88.17,1.93.28,2.89l.18,1.45.21,1.44c.16,1,.31,1.92.51,2.87s.4,1.92.61,2.87c.45,1.9,1,3.8,1.52,5.71a48.56,48.56,0,0,1-4.39-11.08,49.34,49.34,0,0,1-1.2-5.9,21.47,21.47,0,0,1-.3-3c0-1,.05-2,.11-3a20.47,20.47,0,0,0,0-2.93c-.07-1-.24-1.94-.39-2.9a57.74,57.74,0,0,0-1.27-5.69,53.85,53.85,0,0,0-4.24-10.8Z" transform="translate(-0.01 0.04)"/><path id="Path_249" data-name="Path 249" class="cls-4" d="M24.15,62.88A91.08,91.08,0,0,0,25.92,74c.2.9.43,1.8.67,2.7s.52,1.78.8,2.66c.55,1.77,1.25,3.45,1.9,5.2A53,53,0,0,1,31,90.06c.49,1.88.9,3.79,1.29,5.7s.72,3.84,1,5.81.51,4,.78,6l-5.82-.69a19.76,19.76,0,0,0,1.37-5.28,25.11,25.11,0,0,0,.1-5.48,22.43,22.43,0,0,0-.41-2.71c-.1-.45-.21-.89-.34-1.33s-.26-.88-.41-1.31c-.58-1.74-1.34-3.42-2-5.21A41,41,0,0,1,25,80a49.77,49.77,0,0,1-.93-5.7A51.39,51.39,0,0,1,24.15,62.88Z" transform="translate(-0.01 0.04)"/><path id="Path_250" data-name="Path 250" class="cls-4" d="M54.5,94.3a22.68,22.68,0,0,1,5.41,7.42c.39,1,.58,2,.89,3s.59,2,.8,3,.37,2.1.5,3.15a31.43,31.43,0,0,1,.2,3.21c0,1.08,0,2.17-.09,3.27l-5.74-1.2a22.67,22.67,0,0,0,.8-2.58,24.86,24.86,0,0,0,.48-2.69,24.53,24.53,0,0,0,0-5.55,23.53,23.53,0,0,0-.65-2.73l-.3-1.39c-.11-.46-.23-.92-.35-1.39A41.57,41.57,0,0,0,54.5,94.3Z" transform="translate(-0.01 0.04)"/><path id="Path_251" data-name="Path 251" class="cls-4" d="M72.75,50.27c.63,1.17,1.18,2.38,1.73,3.59s1.09,2.46,1.62,3.7,1.06,2.51,1.55,3.81A38.57,38.57,0,0,1,79,65.44a23,23,0,0,1-3.49-2.56,35.39,35.39,0,0,1-3-3c-.93-1.05-1.82-2.15-2.65-3.29A31.24,31.24,0,0,1,67.57,53Z" transform="translate(-0.01 0.04)"/><path id="Path_252" data-name="Path 252" class="cls-4" d="M68.37,11.71A25.05,25.05,0,0,1,73.1,9.1a10,10,0,0,1,3-.72,4.72,4.72,0,0,1,3.49,1.13,5.51,5.51,0,0,1,.92,1.22c.21.35.4.68.6,1a17.58,17.58,0,0,0,1.33,1.87,20.47,20.47,0,0,0,3.42,3.29,22,22,0,0,1-4.39-2.19,18.47,18.47,0,0,1-2-1.52l-.93-.84a2.3,2.3,0,0,0-.72-.51,1.35,1.35,0,0,0-.49,0,2.54,2.54,0,0,0-.59.19,6.72,6.72,0,0,0-1.47,1,21.9,21.9,0,0,0-2.91,3.1Z" transform="translate(-0.01 0.04)"/><path id="Path_253" data-name="Path 253" class="cls-4" d="M88.59,27.92A25.39,25.39,0,0,1,95,26.31c1.07-.13,2.16-.17,3-.22a5.48,5.48,0,0,1,.81,0s-.05.14,0,.19h0v-.06a1.52,1.52,0,0,0-.12-.87,6,6,0,0,0-.55-1.14,6.16,6.16,0,0,0-1.75-1.88,8.34,8.34,0,0,0-2.51-1.17,12.27,12.27,0,0,0-2.89-.46,12.6,12.6,0,0,1,3-.27A9.46,9.46,0,0,1,97,21a8.23,8.23,0,0,1,2.79,1.79,9.2,9.2,0,0,1,1.1,1.31,4.38,4.38,0,0,1,.79,1.9,2.58,2.58,0,0,1,0,.68,2.72,2.72,0,0,1-.16.74,3,3,0,0,1-1,1.31,4.42,4.42,0,0,1-1.08.61c-.33.14-.6.22-.88.31-1.05.33-1.9.57-2.75.91a20.8,20.8,0,0,0-4.64,2.51Z" transform="translate(-0.01 0.04)"/><path id="Path_254" data-name="Path 254" class="cls-4" d="M26,31a23.36,23.36,0,0,0-3.94-1.63,17,17,0,0,0-2-.45,13.3,13.3,0,0,1-2.25-.59,11.09,11.09,0,0,1-1.12-.48c-.36-.17-.66-.32-1-.51a6,6,0,0,1-1.09-.78,4.07,4.07,0,0,1-1.05-1.35,4.85,4.85,0,0,1-.45-1.58,6.37,6.37,0,0,1,.06-1.51,8.49,8.49,0,0,1,.92-2.52,11.9,11.9,0,0,1,1.5-2.09,8.83,8.83,0,0,1,2.12-1.68c.76-.44,1.5-.74,2.06-1a9.84,9.84,0,0,0,1.56-1,14,14,0,0,0,4.34-6.15l5,3a38,38,0,0,1-3.32,3.51,23.24,23.24,0,0,1-1.9,1.54A18.78,18.78,0,0,1,23.34,17a18.25,18.25,0,0,1-2.26,1c-.77.26-1.39.42-1.9.65a3.82,3.82,0,0,0-1.3.91A5.59,5.59,0,0,0,16.93,21a5.24,5.24,0,0,0-.45,1.54,2.18,2.18,0,0,0,.12,1.13.87.87,0,0,0,.22.37,4.88,4.88,0,0,0,.59.52l.83.6c.28.2.52.37.79.54a16.63,16.63,0,0,0,1.78.92,14,14,0,0,1,2,1.12A12.44,12.44,0,0,1,26,31Z" transform="translate(-0.01 0.04)"/><path id="Path_255" data-name="Path 255" class="cls-4" d="M30.82,27.24a7,7,0,0,1-2.42,0,4.93,4.93,0,0,1-1.25-.34,4.17,4.17,0,0,1-1.23-.7,3.58,3.58,0,0,1-1-1.31A3.31,3.31,0,0,1,24.7,23a5.35,5.35,0,0,1,.56-1.6c.12-.22.25-.45.39-.66s.3-.41.46-.61A7,7,0,0,1,27.36,19a13.81,13.81,0,0,1,1.24-.72,1.51,1.51,0,0,0,.52-.42,2,2,0,0,0,.33-.43,13,13,0,0,0,1.14-2.88l5.6,1.73a11.19,11.19,0,0,1-1.09,2.54,9.28,9.28,0,0,1-2,2.41,7.56,7.56,0,0,1-1.44,1,6.71,6.71,0,0,1-1.52.54c-.38.08-.63.11-.85.15a2.54,2.54,0,0,0-.59.19,4.79,4.79,0,0,0-1.1.84c-.11.13-.17.14-.22.29a1,1,0,0,0,.11.62,3.85,3.85,0,0,0,1.28,1.41A8.88,8.88,0,0,0,30.82,27.24Z" transform="translate(-0.01 0.04)"/><path id="Path_256" data-name="Path 256" class="cls-4" d="M31,33.72a12,12,0,0,1,4.37-2.55A10.45,10.45,0,0,1,38,30.71a17.08,17.08,0,0,1,2.67.23,9.48,9.48,0,0,0,2.13,0,9.81,9.81,0,0,0,2-.45,13.65,13.65,0,0,0,3.65-1.95l2.57,5.27a18.37,18.37,0,0,1-5.59,1,13.25,13.25,0,0,1-2.88-.25,12.31,12.31,0,0,1-2.66-.85,14.12,14.12,0,0,0-2.09-.86,8.2,8.2,0,0,0-2.2-.28A11.26,11.26,0,0,0,31,33.72Z" transform="translate(-0.01 0.04)"/><path id="Path_257" data-name="Path 257" class="cls-4" d="M111.11,107.08a9.8,9.8,0,0,1,1.13-4.17,9.34,9.34,0,0,1,1.25-1.82,8.73,8.73,0,0,1,1.67-1.48,8,8,0,0,1,2-1l.54-.13a5.21,5.21,0,0,1,.55-.08,5.43,5.43,0,0,1,4.56,1.72,7.42,7.42,0,0,0-3.08.9,4.94,4.94,0,0,0-1.71,1.72,7,7,0,0,0-.82,2.17,14.09,14.09,0,0,0-.26,2.34Z" transform="translate(-0.01 0.04)"/></g></g></svg>