<svg xmlns="http://www.w3.org/2000/svg" width="467.035" height="63.327" viewBox="0 0 467.035 63.327">
  <g id="Group_214" data-name="Group 214" transform="translate(-140 -40)">
    <g id="Group_34" data-name="Group 34" transform="translate(-27.965)">
      <text id="Vesterhavsgruppen" transform="translate(248 48.5)" fill="#303960" font-size="40" font-family="SansitaSwashed-Bold, Sansita Swashed" font-weight="700" letter-spacing="0.02em"><tspan x="0" y="41">Vesterhavsgruppen</tspan></text>
      <g id="Group_19" data-name="Group 19" transform="translate(-431.804 5.891)">
        <g id="Group_12" data-name="Group 12" transform="translate(599.769 35.414)">
          <path id="Path_239" data-name="Path 239" d="M634.253,102.482a21.2,21.2,0,0,1-5.134-.616,16.368,16.368,0,0,1-3.774-1.45c-.984-.481-2.208-1.08-4.348-1.95a52.545,52.545,0,0,0-6.262-2.133,9.621,9.621,0,0,1-4.3-2.012c-2.19-1.879-2.613-3.949-4.394-12.661-1.188-5.812-1.964-9.717-2.532-12.568-1.189-5.977-1.26-6.335-1.825-7.7-.139-.335-.276-.654-.408-.963a14.041,14.041,0,0,1-1.514-6.015c.008-6.241,4.513-10.292,5.416-11.041,4.528-3.756,7.037-2.912,7.861-2.635a5.646,5.646,0,0,1,2.825,2.439c.162.217.341.456.543.72,1.129,1.467,3.393,3.658,7.9,8.023,1.056,1.022,1.763,1.677,2.28,2.156a12.193,12.193,0,0,1,1.994,2.146,20.667,20.667,0,0,1,3.229,7.4,132.039,132.039,0,0,1,2.955,17.722q.065.683.122,1.317c.388,4.247.631,6.322,1.909,7.083a6,6,0,0,0,1.537.589,5.686,5.686,0,0,1,2.987,1.651c1.608,1.794,1.81,4.677.6,8.57l-.253.816-.826.218A25.891,25.891,0,0,1,634.253,102.482Zm-22.836-58.92c-1.082,0-2.512.732-4.264,2.186-.44.365-4.3,3.7-4.3,8.672a11.107,11.107,0,0,0,1.263,4.8c.138.321.28.652.424,1,.681,1.643.78,2.144,2,8.276.566,2.848,1.342,6.748,2.528,12.552,1.742,8.523,2.078,9.821,3.381,10.939a6.824,6.824,0,0,0,3.119,1.383,55.307,55.307,0,0,1,6.592,2.246c2.238.91,3.569,1.561,4.541,2.036a13.577,13.577,0,0,0,3.164,1.228,20.039,20.039,0,0,0,9.361-.061c.6-2.284.534-3.963-.191-4.773a2.8,2.8,0,0,0-1.526-.74,8.907,8.907,0,0,1-2.279-.907c-2.685-1.6-2.97-4.723-3.4-9.452q-.057-.629-.121-1.306a128.651,128.651,0,0,0-2.876-17.263,17.517,17.517,0,0,0-2.741-6.346A9.3,9.3,0,0,0,624.5,56.34c-.527-.488-1.25-1.157-2.33-2.2-4.617-4.469-6.935-6.713-8.2-8.358-.213-.277-.4-.528-.571-.756-.759-1.017-.942-1.227-1.337-1.36A2.015,2.015,0,0,0,611.418,43.562Z" transform="translate(-599.769 -40.461)" fill="#303960"/>
        </g>
        <path id="Path_240" data-name="Path 240" d="M607.437,88.822a11.2,11.2,0,0,0,.275,1.965,4.751,4.751,0,0,0,.683,1.59,2.9,2.9,0,0,0,.509.564,2.346,2.346,0,0,0,.592.377,13.9,13.9,0,0,0,1.884.554,8.943,8.943,0,0,1,2.41,1.075c.193.114.366.247.545.375a6.191,6.191,0,0,1,.513.413,5.837,5.837,0,0,1,.887,1.013,9.35,9.35,0,0,1,.613,1.05,1.968,1.968,0,0,0,.405.592c.036.033.082.06.123.092l.152.082a2.481,2.481,0,0,0,.334.111,2.075,2.075,0,0,0,.722.057,5.789,5.789,0,0,0,1.763-.526c.646-.279,1.322-.631,2.142-.916a8.877,8.877,0,0,1,2.548-.468,11.2,11.2,0,0,1,2.517.21,14.04,14.04,0,0,1,2.352.68,19.732,19.732,0,0,1,2.163,1,15.088,15.088,0,0,1,1.981,1.248,12.938,12.938,0,0,1,1.739,1.533l-1.267,1.713c-.34-.146-.66-.315-.978-.485-.156-.091-.317-.17-.476-.253l-.47-.256c-.306-.183-.623-.338-.929-.511s-.615-.335-.921-.5a16.357,16.357,0,0,0-3.767-1.5,8.547,8.547,0,0,0-1.9-.26,6.292,6.292,0,0,0-1.831.24c-.593.172-1.26.46-1.984.749a8.6,8.6,0,0,1-2.506.661,4.447,4.447,0,0,1-1.484-.122,4.665,4.665,0,0,1-1.411-.617,5.945,5.945,0,0,1-1.128-1.006,10.148,10.148,0,0,0-.729-.724c-.225-.2-.448-.376-.677-.567s-.473-.384-.719-.548a6.167,6.167,0,0,0-1.619-.777c-.306-.107-.654-.2-1.049-.332a7.1,7.1,0,0,1-1.279-.529,5.442,5.442,0,0,1-2.083-2.088,6.872,6.872,0,0,1-.8-2.578,10.407,10.407,0,0,1,.024-2.47Z" transform="translate(-4.332 -43.401)" fill="#303960"/>
        <g id="Group_13" data-name="Group 13" transform="translate(640.284 75.602)">
          <path id="Path_241" data-name="Path 241" d="M798.2,257.047a11.438,11.438,0,0,1-1.309-.079l.354-3.063a4.126,4.126,0,0,0,3.241-.61c.9-.8.94-2.394.979-3.938.008-.322.017-.637.031-.941a24.366,24.366,0,0,1,4.544-12.427l2.552,1.73a21.354,21.354,0,0,0-4.017,10.849c-.014.281-.021.572-.029.869-.051,2-.114,4.479-2.015,6.166A6.308,6.308,0,0,1,798.2,257.047Z" transform="translate(-796.891 -235.989)" fill="#303960"/>
        </g>
        <g id="Group_14" data-name="Group 14" transform="translate(630.801 56.511)">
          <path id="Path_242" data-name="Path 242" d="M781.939,180.222a4.262,4.262,0,0,1-1.388-.226c-1.673-.571-2.206-2.02-2.822-3.7-.156-.425-.318-.864-.514-1.346-1.442-3.547-3.274-5.767-5.592-8.577a30,30,0,0,0-7.485-6.424l1.614-2.627A33.058,33.058,0,0,1,774,164.414a33.843,33.843,0,0,1,6.069,9.378c.216.531.394,1.016.552,1.444.345.937.642,1.746.925,1.843,1.03.352,3.1-.927,4.319-2.3.7-.794,1.072-1.221,1.076-1.51,0-.339-.916-.895-1.889-1.483a25.028,25.028,0,0,1-5.239-3.969,18.478,18.478,0,0,1-2.014-2.427,50.509,50.509,0,0,0-3.277-4.072,34.832,34.832,0,0,0-4.069-4.072,27.35,27.35,0,0,1-3.439-3.438c-1.221-1.423-2.218-2.766-3.1-3.951-1.5-2.026-2.8-3.771-3.693-3.667a.984.984,0,0,0-.214.051,25.826,25.826,0,0,1-7.915,5.911l-1.344-2.774a22.758,22.758,0,0,0,7.163-5.416l.173-.2.229-.128a4.175,4.175,0,0,1,1.538-.508c2.67-.322,4.378,1.978,6.538,4.891.849,1.144,1.811,2.44,2.961,3.78a24.414,24.414,0,0,0,3.109,3.108,37.959,37.959,0,0,1,4.377,4.376,54,54,0,0,1,3.451,4.289,15.583,15.583,0,0,0,1.716,2.076,22.055,22.055,0,0,0,4.641,3.5c1.751,1.058,3.4,2.057,3.377,4.161-.018,1.452-.869,2.41-1.854,3.518C786.94,178.217,784.438,180.222,781.939,180.222Z" transform="translate(-750.751 -143.103)" fill="#303960"/>
        </g>
        <g id="Group_15" data-name="Group 15" transform="translate(638.641 65.229)">
          <path id="Path_243" data-name="Path 243" d="M791.979,208.262l-3.083-.005a34.886,34.886,0,0,1,.775-7.263,35.749,35.749,0,0,1,7.634-15.471l2.369,1.973a32.7,32.7,0,0,0-6.989,14.146A31.8,31.8,0,0,0,791.979,208.262Z" transform="translate(-788.896 -185.523)" fill="#303960"/>
        </g>
        <g id="Group_16" data-name="Group 16" transform="translate(625.93 34.109)">
          <path id="Path_244" data-name="Path 244" d="M755.357,70.577l-3.071-.27a27.5,27.5,0,0,1,2.333-9.083c.421-.918.815-1.628,1.2-2.315a19.93,19.93,0,0,0,1.707-3.736c.931-2.762,1.3-3.938,1.053-5.352-.525-3.012-3.473-4.978-4.89-5.923a9.745,9.745,0,0,0-3.333-1.478,12.469,12.469,0,0,1-4.58-2.164,22.532,22.532,0,0,1-2.058-1.695,4.083,4.083,0,0,0-2.089-1.289,5.689,5.689,0,0,0-4.115.838,19.935,19.935,0,0,0-2.352,3.677c-1.171,2.119-1.966,3.748-2,3.816-1.116,2.294-2.221,4.682-3.284,7.1l-2.822-1.242c1.078-2.45,2.2-4.874,3.333-7.2.087-.179.884-1.808,2.073-3.959,1.967-3.558,2.613-4.212,3.2-4.652a8.8,8.8,0,0,1,6.621-1.383,7.025,7.025,0,0,1,3.5,2.014,19.61,19.61,0,0,0,1.793,1.48,9.458,9.458,0,0,0,3.593,1.692,12.78,12.78,0,0,1,4.228,1.886c1.635,1.091,5.465,3.645,6.217,7.959.39,2.241-.2,3.982-1.168,6.865A23.069,23.069,0,0,1,758.51,60.4c-.369.666-.717,1.294-1.089,2.105A24.433,24.433,0,0,0,755.357,70.577Z" transform="translate(-727.052 -34.109)" fill="#303960"/>
        </g>
        <g id="Group_17" data-name="Group 17" transform="translate(633.426 38.17)">
          <path id="Path_245" data-name="Path 245" d="M780.485,70.142a3.9,3.9,0,0,1-1.014-.111c-1.853-.482-2.754-1.752-3.8-3.222-.247-.347-.5-.707-.791-1.087a17.7,17.7,0,0,0-4.763-4.8c-.492-.3-.914-.513-1.362-.736a11.468,11.468,0,0,1-2.937-1.933,13.655,13.655,0,0,1-2.3-2.713l2.591-1.672a10.575,10.575,0,0,0,1.776,2.1,8.522,8.522,0,0,0,2.241,1.457c.466.232.995.5,1.6.871a20.455,20.455,0,0,1,5.6,5.563c.318.42.6.816.848,1.166.9,1.264,1.326,1.831,2.061,2.023a10.153,10.153,0,0,0,1.312-.036l.2-.012c2.017-.114,3.128-.177,3.663-.488,1.169-.678,1.444-2.694,1.5-3.3L790,63.5c-.145,1.548-.731,4.345-3.022,5.674-1.173.681-2.545.759-5.036.9l-.2.011C781.229,70.119,780.829,70.142,780.485,70.142Z" transform="translate(-763.525 -53.867)" fill="#303960"/>
        </g>
        <g id="Group_18" data-name="Group 18" transform="translate(644.176 52.455)">
          <path id="Path_246" data-name="Path 246" d="M818.373,134.464l-2.547-1.737a20.478,20.478,0,0,0,3.447-9.355l3.065.333a23.563,23.563,0,0,1-3.965,10.76Z" transform="translate(-815.826 -123.372)" fill="#303960"/>
        </g>
        <path id="Path_247" data-name="Path 247" d="M750.6,92.552a18.533,18.533,0,0,1-.661,3.847q-.258.944-.605,1.87c-.23.617-.495,1.221-.74,1.789s-.5,1.094-.761,1.625-.529,1.059-.753,1.61a12.636,12.636,0,0,0-.556,1.7,14.325,14.325,0,0,0-.34,1.756l-3-.7c.21-.633.417-1.264.639-1.89s.457-1.246.684-1.871.47-1.248.756-1.851a10.673,10.673,0,0,1,1.015-1.707l1.116-1.5c.365-.492.718-1,1.076-1.511C749.184,94.693,749.872,93.633,750.6,92.552Z" transform="translate(-113.939 -46.431)" fill="#303960"/>
        <path id="Path_248" data-name="Path 248" d="M684.8,133.726c.161,1.073.327,2.134.468,3.194s.261,2.117.347,3.173.156,2.109.191,3.16c.02.526.017,1.051.04,1.575s.071,1.047.132,1.565.125,1.026.176,1.53.078,1.011.112,1.518.086,1.014.146,1.52l.093.76.111.758c.085.5.166,1.01.267,1.512s.21,1.005.323,1.508c.237,1,.509,2,.8,3a25.592,25.592,0,0,1-2.312-5.828,27.067,27.067,0,0,1-.63-3.1,12.009,12.009,0,0,1-.155-1.578c-.01-.53.027-1.058.057-1.575a10.653,10.653,0,0,0,0-1.541c-.04-.511-.128-1.018-.208-1.523a30.459,30.459,0,0,0-.667-2.995,28.108,28.108,0,0,0-2.228-5.677Z" transform="translate(-65.227 -79.143)" fill="#303960"/>
        <path id="Path_249" data-name="Path 249" d="M660.8,195.02a47.738,47.738,0,0,0,.93,5.853q.162.716.355,1.421c.134.469.271.936.419,1.4.29.93.658,1.814,1,2.737a28.338,28.338,0,0,1,.915,2.884c.259.991.473,1.993.68,3s.379,2.021.526,3.054.265,2.083.411,3.165l-3.062-.358a10.571,10.571,0,0,0,.72-2.781,13.278,13.278,0,0,0,.052-2.88,11.475,11.475,0,0,0-.215-1.426c-.053-.234-.11-.468-.179-.7s-.136-.461-.214-.689c-.309-.913-.709-1.8-1.056-2.737a22.026,22.026,0,0,1-.85-2.922,25.691,25.691,0,0,1-.489-3A26.993,26.993,0,0,1,660.8,195.02Z" transform="translate(-48.336 -127.839)" fill="#303960"/>
        <path id="Path_250" data-name="Path 250" d="M739.207,275.43a11.435,11.435,0,0,1,2.065,2.461,11.077,11.077,0,0,1,.777,1.441c.209.507.309,1.046.47,1.569s.31,1.057.424,1.6.194,1.1.261,1.653a16.24,16.24,0,0,1,.105,1.69c.015.569-.011,1.141-.05,1.717l-3.018-.628a11.741,11.741,0,0,0,.422-1.357,13.643,13.643,0,0,0,.255-1.416,12.974,12.974,0,0,0,.019-2.921,12.367,12.367,0,0,0-.343-1.433l-.156-.73c-.058-.243-.121-.486-.186-.73A21.673,21.673,0,0,0,739.207,275.43Z" transform="translate(-110.779 -191.722)" fill="#303960"/>
        <path id="Path_251" data-name="Path 251" d="M775.384,162.746c.33.615.619,1.252.91,1.892s.572,1.29.85,1.946.56,1.316.816,2a20.5,20.5,0,0,1,.691,2.142,11.747,11.747,0,0,1-1.836-1.347,17.823,17.823,0,0,1-1.571-1.585q-.74-.832-1.394-1.731a16.07,16.07,0,0,1-1.188-1.871Z" transform="translate(-137.358 -102.198)" fill="#303960"/>
        <path id="Path_252" data-name="Path 252" d="M774.7,57.293a13.452,13.452,0,0,1,2.487-1.37,5.207,5.207,0,0,1,1.57-.38,2.47,2.47,0,0,1,1.821.582,2.744,2.744,0,0,1,.487.642c.11.186.207.358.313.528a9.487,9.487,0,0,0,.7.984,10.911,10.911,0,0,0,1.8,1.73,11.293,11.293,0,0,1-2.309-1.154,10.42,10.42,0,0,1-1.063-.8c-.17-.145-.336-.3-.489-.439a1.2,1.2,0,0,0-.376-.268.614.614,0,0,0-.262,0,1.305,1.305,0,0,0-.31.1,3.594,3.594,0,0,0-.769.5,11.234,11.234,0,0,0-1.533,1.63Z" transform="translate(-138.978 -17.025)" fill="#303960"/>
        <path id="Path_253" data-name="Path 253" d="M826.449,90.329a13.557,13.557,0,0,1,3.345-.846c.559-.068,1.133-.09,1.592-.114a2.367,2.367,0,0,1,.423-.022c0,.014-.026.071-.016.1s.013.024.017.019.015-.013.025-.028a.838.838,0,0,0-.065-.459,3.293,3.293,0,0,0-.289-.6,3.252,3.252,0,0,0-.921-.989,4.366,4.366,0,0,0-1.323-.616,6.356,6.356,0,0,0-1.515-.241,6.548,6.548,0,0,1,1.574-.14,4.95,4.95,0,0,1,1.617.311,4.234,4.234,0,0,1,1.466.946,4.585,4.585,0,0,1,.578.685,2.37,2.37,0,0,1,.416,1,1.529,1.529,0,0,1,.01.358,1.437,1.437,0,0,1-.083.391,1.532,1.532,0,0,1-.5.686,2.351,2.351,0,0,1-.57.322c-.172.072-.315.117-.458.165-.554.172-1,.3-1.448.477a10.847,10.847,0,0,0-2.44,1.323Z" transform="translate(-180.09 -41.535)" fill="#303960"/>
        <path id="Path_254" data-name="Path 254" d="M639.9,65.944a11.929,11.929,0,0,0-2.071-.856,8.1,8.1,0,0,0-1.046-.239,7.205,7.205,0,0,1-1.185-.31c-.2-.074-.4-.158-.588-.25s-.345-.169-.532-.268a3.467,3.467,0,0,1-.6-.4,2.165,2.165,0,0,1-.549-.713,2.4,2.4,0,0,1-.236-.832,3.22,3.22,0,0,1,.031-.79,4.318,4.318,0,0,1,.485-1.326,5.866,5.866,0,0,1,.789-1.1,4.562,4.562,0,0,1,1.11-.885c.4-.232.792-.39,1.085-.538a4.863,4.863,0,0,0,.821-.52,7.35,7.35,0,0,0,2.281-3.234l2.633,1.6a20.01,20.01,0,0,1-1.745,1.845c-.321.283-.648.558-1,.811a10,10,0,0,1-1.1.688,8.854,8.854,0,0,1-1.189.521c-.405.139-.732.221-1,.34a1.97,1.97,0,0,0-.683.482,3.125,3.125,0,0,0-.5.761,2.71,2.71,0,0,0-.236.812,1.182,1.182,0,0,0,.06.594.555.555,0,0,0,.116.194,2.318,2.318,0,0,0,.313.272c.132.1.292.216.437.319s.271.193.413.28a8.35,8.35,0,0,0,.935.485,7.8,7.8,0,0,1,1.062.587A6.545,6.545,0,0,1,639.9,65.944Z" transform="translate(-26.47 -15.555)" fill="#303960"/>
        <path id="Path_255" data-name="Path 255" d="M665.982,77.934a3.666,3.666,0,0,1-1.271.027,2.916,2.916,0,0,1-.658-.178,2.342,2.342,0,0,1-.647-.368,1.894,1.894,0,0,1-.544-.69,1.739,1.739,0,0,1-.115-1.021,2.886,2.886,0,0,1,.293-.84,3.36,3.36,0,0,1,.207-.348,3.669,3.669,0,0,1,.243-.322,3.4,3.4,0,0,1,.658-.588,6.718,6.718,0,0,1,.648-.38.764.764,0,0,0,.277-.219,1.6,1.6,0,0,0,.173-.23,7.014,7.014,0,0,0,.637-1.541l2.946.91a5.994,5.994,0,0,1-.575,1.337,4.927,4.927,0,0,1-1.035,1.27,4.048,4.048,0,0,1-.758.509,3.366,3.366,0,0,1-.8.281c-.2.045-.333.063-.447.083a1.221,1.221,0,0,0-.313.1,2.423,2.423,0,0,0-.576.441c-.057.067-.089.073-.116.151a.52.52,0,0,0,.059.325,2.074,2.074,0,0,0,.67.746A4.55,4.55,0,0,0,665.982,77.934Z" transform="translate(-50.009 -29.496)" fill="#303960"/>
        <path id="Path_256" data-name="Path 256" d="M679.091,109.921a6.3,6.3,0,0,1,2.3-1.343,5.265,5.265,0,0,1,1.4-.24,8.794,8.794,0,0,1,1.4.116,4.867,4.867,0,0,0,1.12.011,5.049,5.049,0,0,0,1.048-.235,7.254,7.254,0,0,0,1.922-1.023l1.353,2.77a9.849,9.849,0,0,1-2.945.542,7.158,7.158,0,0,1-1.511-.132,6.693,6.693,0,0,1-1.4-.448,7.9,7.9,0,0,0-1.1-.45,4.292,4.292,0,0,0-1.156-.15A5.912,5.912,0,0,0,679.091,109.921Z" transform="translate(-63.019 -58.073)" fill="#303960"/>
        <path id="Path_257" data-name="Path 257" d="M884.059,290.533a5.214,5.214,0,0,1,.594-2.194,5.034,5.034,0,0,1,.657-.959,4.713,4.713,0,0,1,.881-.776,3.966,3.966,0,0,1,1.065-.5c.1-.026.191-.048.285-.07s.193-.03.289-.04a2.845,2.845,0,0,1,2.4.9,3.969,3.969,0,0,0-1.62.473,2.682,2.682,0,0,0-.9.906,3.705,3.705,0,0,0-.433,1.143,7.531,7.531,0,0,0-.133,1.228Z" transform="translate(-225.859 -200.101)" fill="#303960"/>
      </g>
    </g>
  </g>
</svg>
