<svg id="Layer_1" data-name="Layer 1" xmlns="http://www.w3.org/2000/svg" viewBox="0 0 828.49 120.44"><defs><style>.cls-1{isolation:isolate;}.cls-2{fill:#303960;}</style></defs><g class="cls-1"><g class="cls-1"><path class="cls-2" d="M162.85,94.85a12.56,12.56,0,0,1-2.15-.18,17.7,17.7,0,0,1-2-.49q.3-5.1.48-9.39t.19-8q0-8-.48-13.13a43.32,43.32,0,0,0-1.41-8.22,17.35,17.35,0,0,0-2.11-4.77,12.93,12.93,0,0,0-2.51-2.74,10,10,0,0,1,3.62-2.88,11.16,11.16,0,0,1,5.18-1.26,8.19,8.19,0,0,1,6.51,2.63,15.43,15.43,0,0,1,3.22,7.36,54.92,54.92,0,0,1,.85,11.1q0,4.74-.48,10t-1,10.69h.15a20.52,20.52,0,0,0,5.44-3.92A33.89,33.89,0,0,0,181,75.94a43.16,43.16,0,0,0,3.55-6.77A44.16,44.16,0,0,0,186.82,62a34.53,34.53,0,0,0,.89-6.77,22.39,22.39,0,0,0-.85-6.51,12.54,12.54,0,0,0-2.63-4.81A6.62,6.62,0,0,1,187,40.57a7.78,7.78,0,0,1,4.07-1.22,5.51,5.51,0,0,1,5,2.48,12.56,12.56,0,0,1,1.55,6.7,35.19,35.19,0,0,1-1.33,9,64.14,64.14,0,0,1-3.74,10.21,70.39,70.39,0,0,1-5.66,10,55.92,55.92,0,0,1-7.18,8.65,35.86,35.86,0,0,1-8.21,6.15A18.31,18.31,0,0,1,162.85,94.85Z" transform="translate(-0.01 0.04)"/></g><g class="cls-1"><path class="cls-2" d="M213.86,95.59a18.3,18.3,0,0,1-8-1.63,12,12,0,0,1-5.37-5,17.27,17.27,0,0,1-1.92-8.62A32.07,32.07,0,0,1,200,71a24.91,24.91,0,0,1,4.22-8.17A20.13,20.13,0,0,1,211.5,57,23.91,23.91,0,0,1,222,54.89a21.19,21.19,0,0,1,5.89.78,9,9,0,0,1,4.4,2.73A8.32,8.32,0,0,1,234,64a10.13,10.13,0,0,1-2.18,6.51,14.3,14.3,0,0,1-6.36,4.3,34.54,34.54,0,0,1-10.18,1.85h-3.85c0,.59-.1,1.19-.15,1.81s-.07,1.17-.07,1.66a8,8,0,0,0,1.41,5.07Q214,87,217.49,87a13.86,13.86,0,0,0,5.7-1.26,8.92,8.92,0,0,0,4.22-3.7,3.33,3.33,0,0,1,1.44,1.44,4.73,4.73,0,0,1,.41,2,7.57,7.57,0,0,1-2.11,5.25,13.78,13.78,0,0,1-5.63,3.55A22.5,22.5,0,0,1,213.86,95.59Zm-2-22.27a14.16,14.16,0,0,0,4.69-.74,11.16,11.16,0,0,0,3.67-2.11,9.2,9.2,0,0,0,2.37-3.3,10.93,10.93,0,0,0,.81-4.29,5.4,5.4,0,0,0-.7-3,2.58,2.58,0,0,0-2.33-1.08,4.64,4.64,0,0,0-2.74,1,9,9,0,0,0-2.41,2.82,23.14,23.14,0,0,0-1.92,4.55A45.68,45.68,0,0,0,211.87,73.32Z" transform="translate(-0.01 0.04)"/><path class="cls-2" d="M249.75,95.74a34.56,34.56,0,0,1-5.62-.45,21.29,21.29,0,0,1-5-1.4,9.45,9.45,0,0,1-3.58-2.52,5.58,5.58,0,0,1-1.34-3.77,6.07,6.07,0,0,1,1.11-3.52A6.44,6.44,0,0,1,238.1,82a10.23,10.23,0,0,1,3.88-.7,13.36,13.36,0,0,1,2.71.29,6.47,6.47,0,0,1,2.33,1,19,19,0,0,0-.56,2.36,15.86,15.86,0,0,0-.18,2.52,4.34,4.34,0,0,0,1.4,3,4.88,4.88,0,0,0,3.41,1.14,6.13,6.13,0,0,0,3.77-1.11,3.43,3.43,0,0,0,1.48-2.88,5.16,5.16,0,0,0-1.48-3.55,19.24,19.24,0,0,0-3.77-3.11q-2.29-1.48-4.67-3a40,40,0,0,1-3.88-3.14,13.7,13.7,0,0,1-2.89-3.7,9.85,9.85,0,0,1-1.07-4.63,8.64,8.64,0,0,1,1.7-5.06,13,13,0,0,1,4.29-3.63,22.4,22.4,0,0,1,6-2.15,31.25,31.25,0,0,1,6.55-.7,27,27,0,0,1,6.44.78,12.19,12.19,0,0,1,5.21,2.55,5.79,5.79,0,0,1,2,4.74,5.49,5.49,0,0,1-2,4.66,8.16,8.16,0,0,1-5.07,1.55,13,13,0,0,1-2.63-.29,8,8,0,0,1-2.47-1,11.3,11.3,0,0,0,.59-2,15.49,15.49,0,0,0,.29-2.11,5.4,5.4,0,0,0-1.14-3.62,4.42,4.42,0,0,0-3.37-1.41,5.12,5.12,0,0,0-3.15,1,3.49,3.49,0,0,0-1.36,3A4.66,4.66,0,0,0,251.46,66a15.21,15.21,0,0,0,3.07,2.85q1.89,1.36,4,2.7a53.56,53.56,0,0,1,4.66,3.22,14.39,14.39,0,0,1,3.44,3.74,8.65,8.65,0,0,1,1.22,5,9.75,9.75,0,0,1-2.25,6.37,15,15,0,0,1-6.33,4.29A27.71,27.71,0,0,1,249.75,95.74Z" transform="translate(-0.01 0.04)"/><path class="cls-2" d="M283.2,95.59a8.94,8.94,0,0,1-5.59-1.78,6.12,6.12,0,0,1-2.33-5.18,27.73,27.73,0,0,1,.37-3.88c.25-1.6.53-3.29.85-5.07s.66-3.48,1-5.11.59-3,.74-4l2.22-10.88h-4.59l.3-2.22a48,48,0,0,0,8.33-3.63,54.56,54.56,0,0,0,7.95-5.32h3.26L294,56.37h5.78l-.67,3.33h-5.7L288.9,82.94c-.1.69-.2,1.34-.3,2s-.17,1.22-.22,1.81c0,1.68.39,2.78,1.18,3.29a4.34,4.34,0,0,0,3.41.26,8,8,0,0,1-2.52,3.37A8.87,8.87,0,0,1,287,95.18,18.14,18.14,0,0,1,283.2,95.59Z" transform="translate(-0.01 0.04)"/><path class="cls-2" d="M314.43,95.59a18.38,18.38,0,0,1-8-1.63,11.92,11.92,0,0,1-5.36-5,17.27,17.27,0,0,1-1.93-8.62A32.07,32.07,0,0,1,300.55,71a25.1,25.1,0,0,1,4.22-8.17A20.13,20.13,0,0,1,312.06,57a23.92,23.92,0,0,1,10.51-2.15,21.12,21.12,0,0,1,5.88.78,9,9,0,0,1,4.4,2.73A8.27,8.27,0,0,1,334.56,64a10.08,10.08,0,0,1-2.19,6.51A14.19,14.19,0,0,1,326,74.8a34.54,34.54,0,0,1-10.18,1.85H312c-.05.59-.1,1.19-.15,1.81s-.08,1.17-.08,1.66a8,8,0,0,0,1.41,5.07Q314.58,87,318.05,87a13.79,13.79,0,0,0,5.7-1.26,8.87,8.87,0,0,0,4.22-3.7,3.33,3.33,0,0,1,1.44,1.44,4.73,4.73,0,0,1,.41,2,7.52,7.52,0,0,1-2.11,5.25,13.74,13.74,0,0,1-5.62,3.55A22.59,22.59,0,0,1,314.43,95.59Zm-2-22.27a14.22,14.22,0,0,0,4.7-.74,11,11,0,0,0,3.66-2.11,9,9,0,0,0,2.37-3.3,10.93,10.93,0,0,0,.81-4.29,5.4,5.4,0,0,0-.7-3,2.56,2.56,0,0,0-2.33-1.08,4.64,4.64,0,0,0-2.74,1,8.86,8.86,0,0,0-2.4,2.82,22.53,22.53,0,0,0-1.93,4.55A47.24,47.24,0,0,0,312.43,73.32Z" transform="translate(-0.01 0.04)"/><path class="cls-2" d="M336.18,95.44l7.55-39.07L354.54,55l-1.11,7.1a12.58,12.58,0,0,1,4.47-5.36,11.83,11.83,0,0,1,6.7-1.89c2.81,0,4.95.73,6.4,2.18a8.24,8.24,0,0,1,2.18,6.11,10.67,10.67,0,0,1-2.59,7.36,8.55,8.55,0,0,1-6.73,2.92,9.61,9.61,0,0,1-2.37-.29,3.58,3.58,0,0,1-1.85-1,12.08,12.08,0,0,0,2-4,14.83,14.83,0,0,0,.77-4.4,4.62,4.62,0,0,0-.48-2.22,1.85,1.85,0,0,0-1.81-.89,3.53,3.53,0,0,0-2.33.89A7.62,7.62,0,0,0,355.94,64a23.54,23.54,0,0,0-1.48,3.81,41.09,41.09,0,0,0-1.11,4.88L349.8,94.11Z" transform="translate(-0.01 0.04)"/><path class="cls-2" d="M403.89,95.59a8.53,8.53,0,0,1-5.55-1.74q-2.14-1.74-2.14-5.36a21.71,21.71,0,0,1,.48-4.07q.48-2.44,1.11-5.18l1.26-5.48c.42-1.82.77-3.54,1.07-5.14a22.57,22.57,0,0,0,.44-4,5.6,5.6,0,0,0-.66-2.84,2.51,2.51,0,0,0-2.37-1.15,4.57,4.57,0,0,0-3.7,1.85A15.09,15.09,0,0,0,391.42,67,43.61,43.61,0,0,0,390,72.13l-4.22,22-13.24,1.33,6.73-34.26,11.62-.67a13.29,13.29,0,0,1,5.48-4.25,18,18,0,0,1,7-1.37A11.84,11.84,0,0,1,410.7,57q2.74,2.07,2.74,6.66A25.93,25.93,0,0,1,413,68q-.45,2.48-1.08,5.14c-.42,1.77-.82,3.51-1.22,5.22s-.74,3.28-1,4.73a18.79,18.79,0,0,0-.45,3.66,4.57,4.57,0,0,0,.7,2.59,3.1,3.1,0,0,0,2.48,1.19,6.13,6.13,0,0,1-3.29,3.81A11.7,11.7,0,0,1,403.89,95.59ZM390.5,63l-11.4-1q.67-3.1,1.22-6.36t.93-6.44q.38-3.18.52-5.77a15.54,15.54,0,0,0,0-1.78c0-.54-.07-1.06-.12-1.55a13.21,13.21,0,0,1,3.44-1.37,14.59,14.59,0,0,1,3.3-.41,7.67,7.67,0,0,1,4.66,1.41q1.92,1.41,1.85,4.81a19.37,19.37,0,0,1-.22,2.74c-.15,1-.37,2.17-.67,3.4s-.63,2.53-1,3.89-.76,2.76-1.18,4.21S391,61.65,390.5,63Z" transform="translate(-0.01 0.04)"/><path class="cls-2" d="M430.16,95.59a11.36,11.36,0,0,1-6.66-1.81,10.61,10.61,0,0,1-3.81-5,21.5,21.5,0,0,1-1.22-7.59,31.11,31.11,0,0,1,1.67-10.32,26,26,0,0,1,4.7-8.36,21.88,21.88,0,0,1,7-5.59,19.25,19.25,0,0,1,8.73-2,22.28,22.28,0,0,1,7.77,1.48L459,55,453.47,83.9c-.05.44-.12,1-.22,1.55A9.47,9.47,0,0,0,453.1,87a4,4,0,0,0,.78,2.4,3,3,0,0,0,2.48,1.15,6.32,6.32,0,0,1-1.92,2.88,8.52,8.52,0,0,1-3.08,1.63,12,12,0,0,1-3.51.52,8.65,8.65,0,0,1-4.22-1A5.26,5.26,0,0,1,441,91.37a14.17,14.17,0,0,1-4.66,3.07A15.89,15.89,0,0,1,430.16,95.59Zm4.3-4.66A4.49,4.49,0,0,0,438,89.34a12.1,12.1,0,0,0,2.19-3.89A27.66,27.66,0,0,0,441.41,81L445,60.88a8.13,8.13,0,0,0-2.25-1.18,6.7,6.7,0,0,0-2-.37A5.07,5.07,0,0,0,436.9,61a14.22,14.22,0,0,0-2.78,4.55,37.2,37.2,0,0,0-1.85,6.22,57.3,57.3,0,0,0-1,6.81c-.19,2.29-.29,4.38-.29,6.25a12.6,12.6,0,0,0,.66,4.18A2.7,2.7,0,0,0,434.46,90.93Z" transform="translate(-0.01 0.04)"/><path class="cls-2" d="M470.2,95.52h-1.33a12,12,0,0,1-1.34-.08q-.15-6.06-.37-11.65c-.15-3.73-.34-7.21-.59-10.44s-.57-6-1-8.47a25.18,25.18,0,0,0-1.07-5,4.79,4.79,0,0,0-2-2.51,10.05,10.05,0,0,1,3.55-2,13.56,13.56,0,0,1,3.92-.55c3.2,0,5.4.84,6.58,2.52s1.9,4.17,2.15,7.47c.05.69.09,1.51.11,2.44s.05,2.12.08,3.55,0,3.31,0,5.63v5.14q0,2.92-.07,6.85a27.17,27.17,0,0,0,4-5.63A47.15,47.15,0,0,0,486,75.94a53.35,53.35,0,0,0,2-7.36,35.5,35.5,0,0,0,.74-6.88c0-.64,0-1.33-.11-2.07a13.31,13.31,0,0,0-.41-2.22,7.78,7.78,0,0,1,2.7-1.82,9.52,9.52,0,0,1,3.74-.7,7.41,7.41,0,0,1,3,.59,4.6,4.6,0,0,1,2.11,1.89,6.61,6.61,0,0,1,.78,3.44,20.29,20.29,0,0,1-1.26,6.48,52.14,52.14,0,0,1-3.25,7.43,65.71,65.71,0,0,1-4.3,7q-5.1,7.19-10.13,10.47A20.46,20.46,0,0,1,470.2,95.52Z" transform="translate(-0.01 0.04)"/><path class="cls-2" d="M516.22,95.74a34.56,34.56,0,0,1-5.62-.45,21.29,21.29,0,0,1-5-1.4A9.45,9.45,0,0,1,502,91.37a5.58,5.58,0,0,1-1.34-3.77,6.07,6.07,0,0,1,1.11-3.52A6.44,6.44,0,0,1,504.57,82a10.23,10.23,0,0,1,3.88-.7,13.36,13.36,0,0,1,2.71.29,6.47,6.47,0,0,1,2.33,1,19,19,0,0,0-.56,2.36,15.86,15.86,0,0,0-.18,2.52,4.34,4.34,0,0,0,1.4,3,4.88,4.88,0,0,0,3.41,1.14,6.13,6.13,0,0,0,3.77-1.11,3.43,3.43,0,0,0,1.48-2.88,5.16,5.16,0,0,0-1.48-3.55,19.24,19.24,0,0,0-3.77-3.11q-2.29-1.48-4.67-3A40,40,0,0,1,509,74.76a13.7,13.7,0,0,1-2.89-3.7,9.85,9.85,0,0,1-1.07-4.63,8.64,8.64,0,0,1,1.7-5.06A13,13,0,0,1,511,57.74a22.4,22.4,0,0,1,6-2.15,31.25,31.25,0,0,1,6.55-.7,27,27,0,0,1,6.44.78,12.28,12.28,0,0,1,5.22,2.55,5.81,5.81,0,0,1,2,4.74,5.49,5.49,0,0,1-2,4.66,8.16,8.16,0,0,1-5.07,1.55,13,13,0,0,1-2.63-.29,8,8,0,0,1-2.47-1,11.3,11.3,0,0,0,.59-2,15.49,15.49,0,0,0,.29-2.11,5.4,5.4,0,0,0-1.14-3.62,4.42,4.42,0,0,0-3.37-1.41,5.12,5.12,0,0,0-3.15,1,3.49,3.49,0,0,0-1.36,3A4.66,4.66,0,0,0,517.93,66,15.21,15.21,0,0,0,521,68.84c1.25.91,2.6,1.81,4,2.7a53.56,53.56,0,0,1,4.66,3.22,14.39,14.39,0,0,1,3.44,3.74,8.65,8.65,0,0,1,1.22,5,9.75,9.75,0,0,1-2.25,6.37,15,15,0,0,1-6.33,4.29A27.71,27.71,0,0,1,516.22,95.74Z" transform="translate(-0.01 0.04)"/><path class="cls-2" d="M551.59,108.84q-3.11,0-6-.26a22.77,22.77,0,0,1-5.21-1,8.87,8.87,0,0,1-3.63-2.18,5.06,5.06,0,0,1-1.33-3.63,5.64,5.64,0,0,1,2.11-4.36,8.11,8.11,0,0,1,5.21-1.56,9.06,9.06,0,0,1,3.93.78,7.39,7.39,0,0,1,2.59,2,2.91,2.91,0,0,0-1.08,1.26,4.1,4.1,0,0,0-.25,1.48,2.56,2.56,0,0,0,1.55,2.51,10.73,10.73,0,0,0,4.51.74,12.82,12.82,0,0,0,4.11-.66,7.17,7.17,0,0,0,3.22-2.15A5.59,5.59,0,0,0,562.55,98a2.38,2.38,0,0,0-1.85-2.81,27.68,27.68,0,0,0-6.37-.52,29.15,29.15,0,0,1-7-.67,7.53,7.53,0,0,1-3.89-2,5.43,5.43,0,0,1-1.29-3.52,8.13,8.13,0,0,1,1.74-4.88,15.93,15.93,0,0,1,4-3.63,9.6,9.6,0,0,1-4.48-3.55,10.39,10.39,0,0,1-1.59-5.92,13.63,13.63,0,0,1,2.66-8.62,16.31,16.31,0,0,1,7.14-5.18,26.66,26.66,0,0,1,9.73-1.74,22.57,22.57,0,0,1,4.26.33c1.11.22,2.08.45,2.92.67a10.5,10.5,0,0,0,2.67.33,5.1,5.1,0,0,0,4.07-1.55,5.24,5.24,0,0,0,1.25-3.7,4.91,4.91,0,0,0-1-3.11,7.54,7.54,0,0,1,2.44-1.67,7.06,7.06,0,0,1,2.74-.55,4.48,4.48,0,0,1,3.11,1.07A4,4,0,0,1,585,49.78a8.68,8.68,0,0,1-1.33,4.52,11.66,11.66,0,0,1-3.7,3.77A12.62,12.62,0,0,1,574.39,60a9.68,9.68,0,0,1,1,2.44,10.9,10.9,0,0,1,.37,3A14.32,14.32,0,0,1,573.2,74a15.85,15.85,0,0,1-7,5.4,25.73,25.73,0,0,1-9.88,1.81l-1.59,0c-.57,0-1.15-.06-1.74-.11a4.25,4.25,0,0,0-.85,1,2.27,2.27,0,0,0-.33,1.26c0,.74.48,1.19,1.44,1.37a27.16,27.16,0,0,0,4.33.25h4.74c4.44,0,7.65.76,9.65,2.26a7.32,7.32,0,0,1,2.93,6.33,11.47,11.47,0,0,1-2.19,6.73,16.53,16.53,0,0,1-5.55,4.78,30,30,0,0,1-7.51,2.84A35,35,0,0,1,551.59,108.84Zm5.85-31.45a4.64,4.64,0,0,0,3.92-2,13.77,13.77,0,0,0,2.22-4.89,22.51,22.51,0,0,0,.74-5.69,9.62,9.62,0,0,0-.88-4.26,3.25,3.25,0,0,0-3.19-1.81A4.57,4.57,0,0,0,557.07,60a9.48,9.48,0,0,0-2.22,3.22,18.34,18.34,0,0,0-1.29,4.33,21,21,0,0,0-.34,4.47,7.08,7.08,0,0,0,1,3.89A3.55,3.55,0,0,0,557.44,77.39Z" transform="translate(-0.01 0.04)"/><path class="cls-2" d="M580.6,95.44l7.55-39.07L599,55l-1.12,7.1a12.67,12.67,0,0,1,4.48-5.36,11.83,11.83,0,0,1,6.7-1.89q4.22,0,6.4,2.18a8.28,8.28,0,0,1,2.18,6.11A10.67,10.67,0,0,1,615,70.54a8.55,8.55,0,0,1-6.73,2.92,9.61,9.61,0,0,1-2.37-.29,3.54,3.54,0,0,1-1.85-1,12.08,12.08,0,0,0,2-4,15.16,15.16,0,0,0,.77-4.4,4.62,4.62,0,0,0-.48-2.22,1.85,1.85,0,0,0-1.81-.89,3.53,3.53,0,0,0-2.33.89A7.62,7.62,0,0,0,600.36,64a22.65,22.65,0,0,0-1.48,3.81,41.09,41.09,0,0,0-1.11,4.88l-3.55,21.46Z" transform="translate(-0.01 0.04)"/><path class="cls-2" d="M629.59,95.59a13.85,13.85,0,0,1-5.77-1.11A8.21,8.21,0,0,1,620,91.11a11.05,11.05,0,0,1-1.33-5.66,36.92,36.92,0,0,1,.52-5.25c.35-2.27.86-5.33,1.55-9.18s1.61-8.73,2.74-14.65L636.62,55q-1.49,7.92-2.55,13.28c-.72,3.58-1.29,6.51-1.7,8.81s-.73,4.17-.93,5.62a27.82,27.82,0,0,0-.3,3.66,10.12,10.12,0,0,0,.23,2.15,3.12,3.12,0,0,0,.92,1.7,2.84,2.84,0,0,0,2,.67,4.58,4.58,0,0,0,3.55-1.56,11.63,11.63,0,0,0,2.25-3.88A26,26,0,0,0,641.36,81l4.44-24.64L659,55,653.49,83.9c0,.44-.12,1-.22,1.55a9.47,9.47,0,0,0-.15,1.56,4.15,4.15,0,0,0,.74,2.4,2.83,2.83,0,0,0,2.37,1.15,5.28,5.28,0,0,1-1.81,2.88,8.91,8.91,0,0,1-3.11,1.63,11.87,11.87,0,0,1-3.44.52,8.79,8.79,0,0,1-4.29-1,4.93,4.93,0,0,1-2.52-3.18,11.58,11.58,0,0,1-5,3.15A20.1,20.1,0,0,1,629.59,95.59Z" transform="translate(-0.01 0.04)"/><path class="cls-2" d="M667.62,108.91a6.8,6.8,0,0,1-4.58-1.52q-1.78-1.52-1.78-5.14c0-.49,0-1.12.11-1.89s.18-1.61.3-2.55.27-1.92.44-3,.36-2,.56-3l12.73,1.26c-.3,1.53-.59,3.2-.86,5a35.36,35.36,0,0,0-.4,5.18c0,.64,0,1.27.07,1.89a9.57,9.57,0,0,0,.3,1.74,13.6,13.6,0,0,1-3.3,1.4A12.83,12.83,0,0,1,667.62,108.91Zm12.07-13.39a13.37,13.37,0,0,1-2.81-.26c-.8-.18-1.78-.43-3-.78l-11.55-1,7.1-37.15,11-1.33L679.61,61a16.41,16.41,0,0,1,4.7-4.37,12.43,12.43,0,0,1,6.7-1.77,11.67,11.67,0,0,1,6.77,1.77,10.2,10.2,0,0,1,3.74,5,22.58,22.58,0,0,1,1.18,7.7,33.12,33.12,0,0,1-1.52,10.14,25.58,25.58,0,0,1-4.44,8.36,20.33,20.33,0,0,1-7.21,5.66A22.65,22.65,0,0,1,679.69,95.52Zm.89-4.37a5,5,0,0,0,3.73-1.7,14.73,14.73,0,0,0,2.74-4.55,34.58,34.58,0,0,0,1.81-6.22,66.88,66.88,0,0,0,1-6.81c.22-2.29.34-4.37.34-6.25a9.91,9.91,0,0,0-.67-3.81,2.67,2.67,0,0,0-2.74-1.59,4.8,4.8,0,0,0-3.59,1.48,10.65,10.65,0,0,0-2.29,3.7,22.27,22.27,0,0,0-1.22,4.44l-3.56,19.68a6.46,6.46,0,0,0,2.19,1.22A7.18,7.18,0,0,0,680.58,91.15Z" transform="translate(-0.01 0.04)"/><path class="cls-2" d="M711.29,108.91a6.81,6.81,0,0,1-4.59-1.52q-1.79-1.52-1.78-5.14c0-.49,0-1.12.11-1.89s.18-1.61.3-2.55.27-1.92.44-3,.36-2,.56-3l12.72,1.26c-.29,1.53-.58,3.2-.85,5a35.36,35.36,0,0,0-.4,5.18c0,.64,0,1.27.07,1.89a9.57,9.57,0,0,0,.3,1.74,13.6,13.6,0,0,1-3.3,1.4A12.81,12.81,0,0,1,711.29,108.91Zm12.06-13.39a13.37,13.37,0,0,1-2.81-.26c-.79-.18-1.78-.43-3-.78l-11.55-1,7.1-37.15,11-1.33L723.27,61a16.28,16.28,0,0,1,4.7-4.37,12.43,12.43,0,0,1,6.7-1.77,11.67,11.67,0,0,1,6.77,1.77,10.2,10.2,0,0,1,3.74,5,22.83,22.83,0,0,1,1.18,7.7,33.12,33.12,0,0,1-1.52,10.14,25.58,25.58,0,0,1-4.44,8.36,20.33,20.33,0,0,1-7.21,5.66A22.65,22.65,0,0,1,723.35,95.52Zm.88-4.37a5,5,0,0,0,3.74-1.7,14.73,14.73,0,0,0,2.74-4.55,34.58,34.58,0,0,0,1.81-6.22,66.88,66.88,0,0,0,1-6.81q.33-3.44.33-6.25a9.92,9.92,0,0,0-.66-3.81,2.66,2.66,0,0,0-2.74-1.59,4.8,4.8,0,0,0-3.59,1.48,10.65,10.65,0,0,0-2.29,3.7,22.27,22.27,0,0,0-1.22,4.44l-3.56,19.68A6.46,6.46,0,0,0,722,90.74,7.17,7.17,0,0,0,724.23,91.15Z" transform="translate(-0.01 0.04)"/><path class="cls-2" d="M765.82,95.59a18.3,18.3,0,0,1-8-1.63,11.89,11.89,0,0,1-5.37-5,17.27,17.27,0,0,1-1.92-8.62A31.73,31.73,0,0,1,752,71a24.91,24.91,0,0,1,4.22-8.17A20,20,0,0,1,763.45,57,24,24,0,0,1,774,54.89a21.12,21.12,0,0,1,5.88.78,9,9,0,0,1,4.41,2.73A8.32,8.32,0,0,1,786,64a10.13,10.13,0,0,1-2.18,6.51,14.28,14.28,0,0,1-6.37,4.3,34.47,34.47,0,0,1-10.17,1.85h-3.85c0,.59-.1,1.19-.15,1.81s-.07,1.17-.07,1.66a8.11,8.11,0,0,0,1.4,5.07Q766,87,769.45,87a13.86,13.86,0,0,0,5.7-1.26,8.85,8.85,0,0,0,4.21-3.7,3.35,3.35,0,0,1,1.45,1.44,4.73,4.73,0,0,1,.4,2,7.52,7.52,0,0,1-2.11,5.25,13.74,13.74,0,0,1-5.62,3.55A22.55,22.55,0,0,1,765.82,95.59Zm-2-22.27a14.17,14.17,0,0,0,4.7-.74,11.16,11.16,0,0,0,3.67-2.11,9.05,9.05,0,0,0,2.36-3.3,10.76,10.76,0,0,0,.82-4.29,5.49,5.49,0,0,0-.7-3,2.58,2.58,0,0,0-2.34-1.08,4.61,4.61,0,0,0-2.73,1,9,9,0,0,0-2.41,2.82,22.55,22.55,0,0,0-1.92,4.55A47.16,47.16,0,0,0,763.82,73.32Z" transform="translate(-0.01 0.04)"/><path class="cls-2" d="M819,95.59a8.53,8.53,0,0,1-5.55-1.74q-2.14-1.74-2.14-5.36a21.71,21.71,0,0,1,.48-4.07q.48-2.44,1.11-5.18l1.26-5.48c.42-1.82.77-3.54,1.07-5.14a22.57,22.57,0,0,0,.44-4,5.6,5.6,0,0,0-.66-2.84,2.51,2.51,0,0,0-2.37-1.15,4.57,4.57,0,0,0-3.7,1.85A15.09,15.09,0,0,0,806.48,67,43.61,43.61,0,0,0,805,72.13l-4.22,22-13.24,1.33,7.69-39.07L806.08,55,805,62.14a12.19,12.19,0,0,1,5.51-5.55,17.55,17.55,0,0,1,7.73-1.7q4.81,0,7.55,2.07t2.74,6.66a25.22,25.22,0,0,1-.44,4.37q-.45,2.45-1.08,5.14c-.42,1.8-.82,3.55-1.22,5.26s-.74,3.28-1,4.73a18.79,18.79,0,0,0-.45,3.66,4.57,4.57,0,0,0,.7,2.59,3.1,3.1,0,0,0,2.48,1.19,6.13,6.13,0,0,1-3.29,3.81A11.7,11.7,0,0,1,819,95.59Z" transform="translate(-0.01 0.04)"/></g></g><g id="Group_12" data-name="Group 12"><path id="Path_239" data-name="Path 239" class="cls-2" d="M65.59,120.4a40.1,40.1,0,0,1-9.76-1.17,31.27,31.27,0,0,1-7.18-2.76c-1.87-.91-4.2-2-8.27-3.71a99.83,99.83,0,0,0-11.9-4.05,18.27,18.27,0,0,1-8.18-3.83c-4.16-3.57-5-7.51-8.35-24.07-2.26-11-3.74-18.47-4.82-23.9-2.26-11.36-2.39-12-3.47-14.64-.26-.63-.52-1.24-.77-1.83A26.6,26.6,0,0,1,0,29C0,17.14,8.59,9.44,10.31,8,18.92.87,23.69,2.48,25.25,3a10.67,10.67,0,0,1,5.37,4.63c.31.41.65.87,1,1.37,2.14,2.79,6.45,7,15,15.26,2,1.94,3.35,3.18,4.33,4.09a23.71,23.71,0,0,1,3.79,4.09,39.25,39.25,0,0,1,6.19,14.06,249.52,249.52,0,0,1,5.66,33.7c.08.87.16,1.7.23,2.5.74,8.08,1.2,12,3.63,13.47a11.38,11.38,0,0,0,2.92,1.12,10.85,10.85,0,0,1,5.68,3.14c3.06,3.41,3.45,8.89,1.14,16.29l-.48,1.56-1.57.41A49.69,49.69,0,0,1,65.59,120.4ZM22.17,8.4c-2.06,0-4.78,1.4-8.11,4.16-.84.69-8.17,7-8.17,16.49a21.06,21.06,0,0,0,2.4,9.13c.26.61.53,1.23.8,1.9,1.3,3.12,1.49,4.07,3.81,15.73,1.07,5.42,2.55,12.83,4.8,23.87,3.31,16.2,3.95,18.67,6.43,20.8a13.1,13.1,0,0,0,5.93,2.63,102.58,102.58,0,0,1,12.53,4.24c4.26,1.73,6.79,3,8.64,3.87a26.38,26.38,0,0,0,6,2.33,38.11,38.11,0,0,0,17.8-.11c1.14-4.35,1-7.54-.36-9.08a5.33,5.33,0,0,0-2.9-1.41,16.94,16.94,0,0,1-4.34-1.72c-5.1-3-5.64-9-6.46-18-.07-.8-.15-1.63-.23-2.49a244.54,244.54,0,0,0-5.47-32.82,33.27,33.27,0,0,0-5.21-12.06,17.3,17.3,0,0,0-3-3.22c-1-.93-2.37-2.2-4.43-4.18C33.85,20,29.45,15.69,27,12.57L26,11.13c-1.45-1.94-1.79-2.34-2.55-2.59a3.9,3.9,0,0,0-1.22-.2Z" transform="translate(-0.01 0.04)"/></g><path id="Path_240" data-name="Path 240" class="cls-2" d="M6.35,21.51a21.46,21.46,0,0,0,.53,3.74,8.72,8.72,0,0,0,1.3,3,6,6,0,0,0,1,1.08,4.58,4.58,0,0,0,1.13.71,26.26,26.26,0,0,0,3.58,1.06,17,17,0,0,1,4.58,2,8.83,8.83,0,0,1,1,.71c.3.24.66.51,1,.79a11,11,0,0,1,1.68,1.92,19,19,0,0,1,1.17,2,3.49,3.49,0,0,0,.77,1.13l.23.17.29.16c.21.08.42.15.64.21a4.22,4.22,0,0,0,1.37.11,11.26,11.26,0,0,0,3.35-1c1.23-.53,2.51-1.2,4.07-1.74a16.36,16.36,0,0,1,4.85-.89,21.29,21.29,0,0,1,4.78.39,26.61,26.61,0,0,1,4.47,1.3,36.56,36.56,0,0,1,4.12,1.9A28.28,28.28,0,0,1,56,42.63a24.19,24.19,0,0,1,3.31,2.92L56.92,48.8c-.65-.27-1.25-.6-1.86-.92l-.9-.48-.9-.49c-.58-.34-1.18-.64-1.76-1l-1.75-1a31.28,31.28,0,0,0-7.17-2.85,16.27,16.27,0,0,0-3.61-.5,12,12,0,0,0-3.48.46c-1.13.33-2.4.88-3.77,1.43A16.8,16.8,0,0,1,27,44.7a8.36,8.36,0,0,1-2.82-.23,9,9,0,0,1-2.68-1.17,11.24,11.24,0,0,1-2.15-1.92c-.44-.48-.9-.94-1.38-1.37s-.85-.72-1.29-1.08a16.52,16.52,0,0,0-1.37-1,11.82,11.82,0,0,0-3.08-1.48c-.58-.2-1.24-.38-2-.63a13.22,13.22,0,0,1-2.43-1,10.26,10.26,0,0,1-4-4,13,13,0,0,1-1.52-4.9,20.43,20.43,0,0,1,0-4.69Z" transform="translate(-0.01 0.04)"/><g id="Group_13" data-name="Group 13"><path id="Path_241" data-name="Path 241" class="cls-2" d="M79.53,118.93a20.8,20.8,0,0,1-2.49-.15l.68-5.83a7.81,7.81,0,0,0,6.16-1.16c1.71-1.52,1.79-4.55,1.86-7.48a17.35,17.35,0,0,1,.06-1.79,46.25,46.25,0,0,1,8.64-23.63l4.85,3.29a40.65,40.65,0,0,0-7.64,20.63c0,.53,0,1.08-.05,1.65-.1,3.8-.22,8.51-3.83,11.72A12.05,12.05,0,0,1,79.53,118.93Z" transform="translate(-0.01 0.04)"/></g><g id="Group_14" data-name="Group 14"><path id="Path_242" data-name="Path 242" class="cls-2" d="M118.31,113.17a8.44,8.44,0,0,1-2.64-.43c-3.18-1.09-4.19-3.84-5.36-7-.3-.81-.61-1.64-1-2.56-2.74-6.74-6.22-11-10.63-16.31A57.37,57.37,0,0,0,84.45,74.66l3.07-5A62.85,62.85,0,0,1,103.2,83.14,64.82,64.82,0,0,1,114.74,101c.41,1,.75,1.93,1.05,2.75.65,1.78,1.22,3.32,1.75,3.5,2,.67,5.9-1.76,8.22-4.37,1.33-1.51,2-2.32,2-2.87s-1.74-1.71-3.59-2.82a47.78,47.78,0,0,1-10-7.55A34.45,34.45,0,0,1,110.34,85a94.7,94.7,0,0,0-6.23-7.75,65.79,65.79,0,0,0-7.74-7.74A51.8,51.8,0,0,1,89.83,63c-2.32-2.7-4.21-5.26-5.89-7.51-2.85-3.85-5.32-7.17-7-7a1.89,1.89,0,0,0-.41.1,49,49,0,0,1-15,11.24L59,54.51A43.05,43.05,0,0,0,72.59,44.22l.33-.38.43-.24a8,8,0,0,1,2.93-1c5.07-.61,8.32,3.76,12.43,9.3,1.61,2.18,3.44,4.64,5.63,7.19A47.14,47.14,0,0,0,100.25,65a71.06,71.06,0,0,1,8.32,8.32c2.32,2.6,4.51,5.33,6.56,8.15a29.36,29.36,0,0,0,3.26,4,42.13,42.13,0,0,0,8.83,6.66c3.33,2,6.46,3.91,6.42,7.91,0,2.76-1.65,4.58-3.53,6.69C127.82,109.35,123.06,113.17,118.31,113.17Z" transform="translate(-0.01 0.04)"/></g><g id="Group_15" data-name="Group 15"><path id="Path_243" data-name="Path 243" class="cls-2" d="M79.78,102.4H73.92a66.79,66.79,0,0,1,1.47-13.81A68,68,0,0,1,89.91,59.18l4.5,3.75A62.16,62.16,0,0,0,81.12,89.82,61.16,61.16,0,0,0,79.78,102.4Z" transform="translate(-0.01 0.04)"/></g><g id="Group_16" data-name="Group 16"><path id="Path_244" data-name="Path 244" class="cls-2" d="M103.59,69.33l-5.84-.51a52.17,52.17,0,0,1,4.42-17.31c.8-1.74,1.55-3.09,2.28-4.4a37.9,37.9,0,0,0,3.24-7.1c1.77-5.25,2.47-7.49,2-10.18-1-5.73-6.61-9.46-9.3-11.26a18.52,18.52,0,0,0-6.34-2.81,23.54,23.54,0,0,1-8.71-4.12,43.14,43.14,0,0,1-3.91-3.22,7.82,7.82,0,0,0-4-2.45A10.81,10.81,0,0,0,69.6,7.56a38,38,0,0,0-4.47,7c-2.22,4-3.74,7.12-3.8,7.25-2.12,4.36-4.22,8.9-6.24,13.5L49.72,33c2.05-4.66,4.18-9.27,6.34-13.69.16-.34,1.68-3.44,3.94-7.53,3.74-6.76,5-8,6.08-8.84A16.71,16.71,0,0,1,78.67.26a13.39,13.39,0,0,1,6.66,3.83,38.12,38.12,0,0,0,3.4,2.81,18.17,18.17,0,0,0,6.84,3.22,24.33,24.33,0,0,1,8,3.58c3.1,2.08,10.39,6.93,11.82,15.14.74,4.26-.38,7.57-2.23,13.05a43.34,43.34,0,0,1-3.68,8c-.7,1.27-1.36,2.46-2.07,4A46.54,46.54,0,0,0,103.59,69.33Z" transform="translate(-0.01 0.04)"/></g><g id="Group_17" data-name="Group 17"><path id="Path_245" data-name="Path 245" class="cls-2" d="M96.25,38.66a7,7,0,0,1-1.93-.21c-3.52-.92-5.23-3.33-7.22-6.12-.47-.66-.95-1.35-1.51-2.07a33.46,33.46,0,0,0-9-9.13A27,27,0,0,0,74,19.73a22.06,22.06,0,0,1-5.59-3.67A26.62,26.62,0,0,1,64,10.9l4.93-3.18a20.15,20.15,0,0,0,3.37,4,16.46,16.46,0,0,0,4.3,2.79,31.23,31.23,0,0,1,3,1.66A38.68,38.68,0,0,1,90.23,26.75c.61.79,1.15,1.55,1.62,2.21,1.71,2.41,2.52,3.48,3.92,3.85a18.83,18.83,0,0,0,2.49-.07h.38c3.84-.22,6-.34,7-.93,2.23-1.29,2.75-5.12,2.86-6.27l5.87.54c-.27,3-1.39,8.26-5.74,10.79-2.23,1.3-4.84,1.44-9.58,1.71h-.38C97.67,38.62,96.9,38.66,96.25,38.66Z" transform="translate(-0.01 0.04)"/></g><g id="Group_18" data-name="Group 18"><path id="Path_246" data-name="Path 246" class="cls-2" d="M89.29,56l-4.85-3.3A39,39,0,0,0,91,34.88l5.83.63A44.77,44.77,0,0,1,89.29,56Z" transform="translate(-0.01 0.04)"/></g><path id="Path_247" data-name="Path 247" class="cls-2" d="M70.16,22.84a35.63,35.63,0,0,1-1.26,7.31c-.33,1.2-.71,2.38-1.15,3.56s-.94,2.32-1.41,3.4-1,2.08-1.45,3.09-1,2-1.43,3.06a23,23,0,0,0-1.05,3.23,25.26,25.26,0,0,0-.65,3.34l-5.7-1.33c.39-1.21.79-2.41,1.21-3.6s.87-2.36,1.3-3.55A37.11,37.11,0,0,1,60,37.83a19.74,19.74,0,0,1,1.93-3.25l2.12-2.85c.69-.94,1.36-1.9,2-2.87C67.46,26.91,68.77,24.89,70.16,22.84Z" transform="translate(-0.01 0.04)"/><path id="Path_248" data-name="Path 248" class="cls-2" d="M37.67,38.92c.3,2,.62,4.06.89,6.08s.49,4,.66,6,.29,4,.36,6c0,1,0,2,.07,3s.14,2,.26,3,.23,2,.33,2.91.15,1.92.21,2.88.17,1.93.28,2.89l.18,1.45.21,1.44c.16,1,.31,1.92.51,2.87s.4,1.92.61,2.87c.45,1.9,1,3.8,1.52,5.71a48.56,48.56,0,0,1-4.39-11.08,49.34,49.34,0,0,1-1.2-5.9,21.47,21.47,0,0,1-.3-3c0-1,.05-2,.11-3a20.47,20.47,0,0,0,0-2.93c-.07-1-.24-1.94-.39-2.9a57.74,57.74,0,0,0-1.27-5.69,53.85,53.85,0,0,0-4.24-10.8Z" transform="translate(-0.01 0.04)"/><path id="Path_249" data-name="Path 249" class="cls-2" d="M24.15,62.88A91.08,91.08,0,0,0,25.92,74c.2.9.43,1.8.67,2.7s.52,1.78.8,2.66c.55,1.77,1.25,3.45,1.9,5.2A53,53,0,0,1,31,90.06c.49,1.88.9,3.79,1.29,5.7s.72,3.84,1,5.81.51,4,.78,6l-5.82-.69a19.76,19.76,0,0,0,1.37-5.28,25.11,25.11,0,0,0,.1-5.48,22.43,22.43,0,0,0-.41-2.71c-.1-.45-.21-.89-.34-1.33s-.26-.88-.41-1.31c-.58-1.74-1.34-3.42-2-5.21A41,41,0,0,1,25,80a49.77,49.77,0,0,1-.93-5.7A51.39,51.39,0,0,1,24.15,62.88Z" transform="translate(-0.01 0.04)"/><path id="Path_250" data-name="Path 250" class="cls-2" d="M54.5,94.3a22.68,22.68,0,0,1,5.41,7.42c.39,1,.58,2,.89,3s.59,2,.8,3,.37,2.1.5,3.15a31.43,31.43,0,0,1,.2,3.21c0,1.08,0,2.17-.09,3.27l-5.74-1.2a22.67,22.67,0,0,0,.8-2.58,24.86,24.86,0,0,0,.48-2.69,24.53,24.53,0,0,0,0-5.55,23.53,23.53,0,0,0-.65-2.73l-.3-1.39c-.11-.46-.23-.92-.35-1.39A41.57,41.57,0,0,0,54.5,94.3Z" transform="translate(-0.01 0.04)"/><path id="Path_251" data-name="Path 251" class="cls-2" d="M72.75,50.27c.63,1.17,1.18,2.38,1.73,3.59s1.09,2.46,1.62,3.7,1.06,2.51,1.55,3.81A38.57,38.57,0,0,1,79,65.44a23,23,0,0,1-3.49-2.56,35.39,35.39,0,0,1-3-3c-.93-1.05-1.82-2.15-2.65-3.29A31.24,31.24,0,0,1,67.57,53Z" transform="translate(-0.01 0.04)"/><path id="Path_252" data-name="Path 252" class="cls-2" d="M68.37,11.71A25.05,25.05,0,0,1,73.1,9.1a10,10,0,0,1,3-.72,4.72,4.72,0,0,1,3.49,1.13,5.51,5.51,0,0,1,.92,1.22c.21.35.4.68.6,1a17.58,17.58,0,0,0,1.33,1.87,20.47,20.47,0,0,0,3.42,3.29,22,22,0,0,1-4.39-2.19,18.47,18.47,0,0,1-2-1.52l-.93-.84a2.3,2.3,0,0,0-.72-.51,1.35,1.35,0,0,0-.49,0,2.54,2.54,0,0,0-.59.19,6.72,6.72,0,0,0-1.47,1,21.9,21.9,0,0,0-2.91,3.1Z" transform="translate(-0.01 0.04)"/><path id="Path_253" data-name="Path 253" class="cls-2" d="M88.59,27.92A25.39,25.39,0,0,1,95,26.31c1.07-.13,2.16-.17,3-.22a5.48,5.48,0,0,1,.81,0s-.05.14,0,.19h0v-.06a1.52,1.52,0,0,0-.12-.87,6,6,0,0,0-.55-1.14,6.16,6.16,0,0,0-1.75-1.88,8.34,8.34,0,0,0-2.51-1.17,12.27,12.27,0,0,0-2.89-.46,12.6,12.6,0,0,1,3-.27A9.46,9.46,0,0,1,97,21a8.23,8.23,0,0,1,2.79,1.79,9.2,9.2,0,0,1,1.1,1.31,4.38,4.38,0,0,1,.79,1.9,2.58,2.58,0,0,1,0,.68,2.72,2.72,0,0,1-.16.74,3,3,0,0,1-1,1.31,4.42,4.42,0,0,1-1.08.61c-.33.14-.6.22-.88.31-1.05.33-1.9.57-2.75.91a20.8,20.8,0,0,0-4.64,2.51Z" transform="translate(-0.01 0.04)"/><path id="Path_254" data-name="Path 254" class="cls-2" d="M26,31a23.36,23.36,0,0,0-3.94-1.63,17,17,0,0,0-2-.45,13.3,13.3,0,0,1-2.25-.59,11.09,11.09,0,0,1-1.12-.48c-.36-.17-.66-.32-1-.51a6,6,0,0,1-1.09-.78,4.07,4.07,0,0,1-1.05-1.35,4.85,4.85,0,0,1-.45-1.58,6.37,6.37,0,0,1,.06-1.51,8.49,8.49,0,0,1,.92-2.52,11.9,11.9,0,0,1,1.5-2.09,8.83,8.83,0,0,1,2.12-1.68c.76-.44,1.5-.74,2.06-1a9.84,9.84,0,0,0,1.56-1,14,14,0,0,0,4.34-6.15l5,3a38,38,0,0,1-3.32,3.51,23.24,23.24,0,0,1-1.9,1.54A18.78,18.78,0,0,1,23.34,17a18.25,18.25,0,0,1-2.26,1c-.77.26-1.39.42-1.9.65a3.82,3.82,0,0,0-1.3.91A5.59,5.59,0,0,0,16.93,21a5.24,5.24,0,0,0-.45,1.54,2.18,2.18,0,0,0,.12,1.13.87.87,0,0,0,.22.37,4.88,4.88,0,0,0,.59.52l.83.6c.28.2.52.37.79.54a16.63,16.63,0,0,0,1.78.92,14,14,0,0,1,2,1.12A12.44,12.44,0,0,1,26,31Z" transform="translate(-0.01 0.04)"/><path id="Path_255" data-name="Path 255" class="cls-2" d="M30.82,27.24a7,7,0,0,1-2.42,0,4.93,4.93,0,0,1-1.25-.34,4.17,4.17,0,0,1-1.23-.7,3.58,3.58,0,0,1-1-1.31A3.31,3.31,0,0,1,24.7,23a5.35,5.35,0,0,1,.56-1.6c.12-.22.25-.45.39-.66s.3-.41.46-.61A7,7,0,0,1,27.36,19a13.81,13.81,0,0,1,1.24-.72,1.51,1.51,0,0,0,.52-.42,2,2,0,0,0,.33-.43,13,13,0,0,0,1.14-2.88l5.6,1.73a11.19,11.19,0,0,1-1.09,2.54,9.28,9.28,0,0,1-2,2.41,7.56,7.56,0,0,1-1.44,1,6.71,6.71,0,0,1-1.52.54c-.38.08-.63.11-.85.15a2.54,2.54,0,0,0-.59.19,4.79,4.79,0,0,0-1.1.84c-.11.13-.17.14-.22.29a1,1,0,0,0,.11.62,3.85,3.85,0,0,0,1.28,1.41A8.88,8.88,0,0,0,30.82,27.24Z" transform="translate(-0.01 0.04)"/><path id="Path_256" data-name="Path 256" class="cls-2" d="M31,33.72a12,12,0,0,1,4.37-2.55A10.45,10.45,0,0,1,38,30.71a17.08,17.08,0,0,1,2.67.23,9.48,9.48,0,0,0,2.13,0,9.81,9.81,0,0,0,2-.45,13.65,13.65,0,0,0,3.65-1.95l2.57,5.27a18.37,18.37,0,0,1-5.59,1,13.25,13.25,0,0,1-2.88-.25,12.31,12.31,0,0,1-2.66-.85,14.12,14.12,0,0,0-2.09-.86,8.2,8.2,0,0,0-2.2-.28A11.26,11.26,0,0,0,31,33.72Z" transform="translate(-0.01 0.04)"/><path id="Path_257" data-name="Path 257" class="cls-2" d="M111.11,107.08a9.8,9.8,0,0,1,1.13-4.17,9.34,9.34,0,0,1,1.25-1.82,8.73,8.73,0,0,1,1.67-1.48,8,8,0,0,1,2-1l.54-.13a5.21,5.21,0,0,1,.55-.08,5.43,5.43,0,0,1,4.56,1.72,7.42,7.42,0,0,0-3.08.9,4.94,4.94,0,0,0-1.71,1.72,7,7,0,0,0-.82,2.17,14.09,14.09,0,0,0-.26,2.34Z" transform="translate(-0.01 0.04)"/></svg>