<svg id="Layer_1" data-name="Layer 1" xmlns="http://www.w3.org/2000/svg" viewBox="0 0 848.59 120.4"><defs><style>.cls-1,.cls-2{isolation:isolate;}.cls-2{font-size:76.05px;font-family:SansitaSwashed-Bold, Sansita Swashed;font-weight:700;letter-spacing:0em;}.cls-2,.cls-4{fill:#303960;}.cls-3{letter-spacing:0.02em;}</style></defs><g id="Group_34" data-name="Group 34"><g id="Vesterhavsgruppen" class="cls-1"><text class="cls-2" transform="translate(152.19 94.11)">V<tspan class="cls-3" x="44.95" y="0">esterhavsgruppen</tspan></text></g><g id="Group_19" data-name="Group 19"><g id="Group_12" data-name="Group 12"><path id="Path_239" data-name="Path 239" class="cls-4" d="M326,424.89a40.1,40.1,0,0,1-9.76-1.17,31.27,31.27,0,0,1-7.18-2.76c-1.87-.91-4.2-2-8.27-3.71a99.83,99.83,0,0,0-11.9-4.05,18.27,18.27,0,0,1-8.18-3.83c-4.16-3.57-5-7.51-8.35-24.07-2.26-11.05-3.74-18.47-4.82-23.9-2.26-11.36-2.39-12-3.47-14.64-.26-.63-.52-1.24-.77-1.83a26.6,26.6,0,0,1-2.88-11.43c0-11.87,8.58-19.57,10.3-21,8.61-7.14,13.38-5.53,14.94-5a10.67,10.67,0,0,1,5.37,4.63c.31.41.65.87,1,1.37,2.14,2.79,6.45,7,15,15.26,2,1.94,3.35,3.18,4.33,4.09a23.32,23.32,0,0,1,3.79,4.09A39.31,39.31,0,0,1,321.34,351,249.69,249.69,0,0,1,327,384.7c.08.87.16,1.7.23,2.5.74,8.08,1.2,12,3.63,13.47a11.38,11.38,0,0,0,2.92,1.12,10.81,10.81,0,0,1,5.68,3.14c3.06,3.41,3.45,8.89,1.14,16.29l-.48,1.56-1.57.41A49.45,49.45,0,0,1,326,424.89Zm-43.42-112c-2.06,0-4.78,1.4-8.11,4.16-.84.69-8.17,7-8.17,16.49a21.13,21.13,0,0,0,2.4,9.13c.26.61.53,1.23.8,1.9,1.3,3.12,1.49,4.07,3.81,15.73,1.07,5.42,2.55,12.83,4.8,23.87,3.31,16.2,3.95,18.67,6.43,20.8a13.1,13.1,0,0,0,5.93,2.63A102.73,102.73,0,0,1,303,411.84c4.26,1.73,6.79,3,8.64,3.87a26,26,0,0,0,6,2.33,38.11,38.11,0,0,0,17.8-.11c1.14-4.35,1-7.54-.36-9.08a5.33,5.33,0,0,0-2.9-1.41,16.94,16.94,0,0,1-4.34-1.72c-5.1-3-5.64-9-6.46-18-.07-.8-.15-1.63-.23-2.49a244.8,244.8,0,0,0-5.47-32.82,33.27,33.27,0,0,0-5.21-12.06,17.46,17.46,0,0,0-3-3.22c-1-.93-2.37-2.2-4.43-4.18-8.78-8.5-13.18-12.77-15.59-15.89l-1.08-1.44c-1.45-1.94-1.79-2.34-2.55-2.59a3.85,3.85,0,0,0-1.22-.2Z" transform="translate(-260.41 -304.49)"/></g><path id="Path_240" data-name="Path 240" class="cls-4" d="M266.76,326a21.46,21.46,0,0,0,.53,3.74,8.82,8.82,0,0,0,1.3,3,5.8,5.8,0,0,0,1,1.08,4.58,4.58,0,0,0,1.13.71,26.26,26.26,0,0,0,3.58,1.06,17,17,0,0,1,4.58,2c.37.22.7.47,1,.71s.66.51,1,.79a11,11,0,0,1,1.68,1.92,19,19,0,0,1,1.17,2,3.6,3.6,0,0,0,.77,1.13l.23.17.29.16c.21.08.42.15.64.21a4.19,4.19,0,0,0,1.37.11,11.26,11.26,0,0,0,3.35-1c1.23-.53,2.51-1.2,4.07-1.74a16.42,16.42,0,0,1,4.85-.89,21.29,21.29,0,0,1,4.78.39,26.61,26.61,0,0,1,4.47,1.3,36.56,36.56,0,0,1,4.12,1.9,28.28,28.28,0,0,1,3.76,2.37,24.19,24.19,0,0,1,3.31,2.92l-2.41,3.25c-.65-.27-1.25-.6-1.86-.92l-.9-.48-.9-.49c-.58-.34-1.18-.64-1.76-1l-1.75-1a31.28,31.28,0,0,0-7.17-2.85,16.27,16.27,0,0,0-3.61-.5,12,12,0,0,0-3.48.46c-1.13.33-2.4.88-3.77,1.43a16.48,16.48,0,0,1-4.77,1.25,8.38,8.38,0,0,1-2.82-.23,9,9,0,0,1-2.68-1.17,11.24,11.24,0,0,1-2.15-1.92c-.44-.48-.9-.94-1.38-1.37s-.85-.72-1.29-1.08a17,17,0,0,0-1.37-1,11.67,11.67,0,0,0-3.08-1.48c-.58-.2-1.24-.38-2-.63a13.25,13.25,0,0,1-2.43-1,10.28,10.28,0,0,1-4-4,13,13,0,0,1-1.52-4.9,19.88,19.88,0,0,1,0-4.69Z" transform="translate(-260.41 -304.49)"/><g id="Group_13" data-name="Group 13"><path id="Path_241" data-name="Path 241" class="cls-4" d="M339.94,423.42q-1.24,0-2.49-.15l.68-5.83a7.81,7.81,0,0,0,6.16-1.16c1.71-1.52,1.79-4.55,1.86-7.48,0-.62,0-1.22.06-1.79a46.21,46.21,0,0,1,8.64-23.63l4.85,3.29a40.65,40.65,0,0,0-7.64,20.63c0,.53,0,1.08-.05,1.65-.1,3.8-.22,8.51-3.83,11.72A12.05,12.05,0,0,1,339.94,423.42Z" transform="translate(-260.41 -304.49)"/></g><g id="Group_14" data-name="Group 14"><path id="Path_242" data-name="Path 242" class="cls-4" d="M378.72,417.66a8.44,8.44,0,0,1-2.64-.43c-3.18-1.09-4.19-3.84-5.36-7-.3-.81-.61-1.64-1-2.56-2.74-6.74-6.22-11-10.63-16.31a57.37,57.37,0,0,0-14.23-12.21l3.07-5a62.82,62.82,0,0,1,15.68,13.48,64.67,64.67,0,0,1,11.54,17.83c.41,1,.75,1.93,1.05,2.75.65,1.78,1.22,3.32,1.75,3.5,2,.67,5.9-1.76,8.22-4.37,1.33-1.51,2-2.32,2-2.87s-1.74-1.71-3.59-2.82a47.62,47.62,0,0,1-10-7.55,35.09,35.09,0,0,1-3.83-4.61,94.7,94.7,0,0,0-6.23-7.75,65.79,65.79,0,0,0-7.74-7.74,52.47,52.47,0,0,1-6.54-6.54c-2.32-2.7-4.21-5.26-5.89-7.51-2.85-3.85-5.32-7.17-7-7a1.89,1.89,0,0,0-.41.1,49.05,49.05,0,0,1-15,11.24L319.42,359A43.1,43.1,0,0,0,333,348.71l.33-.38.43-.24a8,8,0,0,1,2.93-1c5.07-.61,8.32,3.76,12.43,9.3,1.61,2.18,3.44,4.64,5.63,7.19a46.48,46.48,0,0,0,5.91,5.91,71.84,71.84,0,0,1,8.32,8.32c2.32,2.6,4.51,5.33,6.56,8.15a29.36,29.36,0,0,0,3.26,3.95,42.13,42.13,0,0,0,8.83,6.66c3.33,2,6.46,3.91,6.42,7.91,0,2.76-1.65,4.58-3.53,6.69C388.23,413.84,383.47,417.66,378.72,417.66Z" transform="translate(-260.41 -304.49)"/></g><g id="Group_15" data-name="Group 15"><path id="Path_243" data-name="Path 243" class="cls-4" d="M340.19,406.89h-5.86a66.79,66.79,0,0,1,1.47-13.81,68,68,0,0,1,14.52-29.41l4.5,3.75a62.16,62.16,0,0,0-13.29,26.89A61.26,61.26,0,0,0,340.19,406.89Z" transform="translate(-260.41 -304.49)"/></g><g id="Group_16" data-name="Group 16"><path id="Path_244" data-name="Path 244" class="cls-4" d="M364,373.82l-5.84-.51A52.22,52.22,0,0,1,362.58,356c.8-1.74,1.55-3.09,2.28-4.4a37.9,37.9,0,0,0,3.24-7.1c1.77-5.25,2.47-7.49,2-10.18-1-5.73-6.61-9.46-9.3-11.26a18.52,18.52,0,0,0-6.34-2.81,23.62,23.62,0,0,1-8.71-4.12,42.84,42.84,0,0,1-3.91-3.22,7.8,7.8,0,0,0-4-2.45,10.81,10.81,0,0,0-7.83,1.59,38,38,0,0,0-4.47,7c-2.22,4-3.74,7.12-3.8,7.25-2.12,4.36-4.22,8.9-6.24,13.5l-5.37-2.36c2.05-4.66,4.18-9.27,6.34-13.69.16-.34,1.68-3.44,3.94-7.53,3.74-6.76,5-8,6.08-8.84a16.71,16.71,0,0,1,12.59-2.63,13.39,13.39,0,0,1,6.66,3.83,38.12,38.12,0,0,0,3.4,2.81,18.17,18.17,0,0,0,6.84,3.22,24.33,24.33,0,0,1,8,3.58c3.1,2.08,10.39,6.93,11.82,15.14.74,4.26-.38,7.57-2.23,13.05a43.34,43.34,0,0,1-3.68,8.05c-.7,1.27-1.36,2.46-2.07,4A46.58,46.58,0,0,0,364,373.82Z" transform="translate(-260.41 -304.49)"/></g><g id="Group_17" data-name="Group 17"><path id="Path_245" data-name="Path 245" class="cls-4" d="M356.66,343.15a7,7,0,0,1-1.93-.21c-3.52-.92-5.23-3.33-7.22-6.12-.47-.66-.95-1.35-1.51-2.07a33.46,33.46,0,0,0-9.05-9.13c-.94-.57-1.74-1-2.59-1.4a22.06,22.06,0,0,1-5.59-3.67,26.33,26.33,0,0,1-4.37-5.16l4.93-3.18a20.09,20.09,0,0,0,3.37,4A16.23,16.23,0,0,0,337,319c.88.44,1.89.95,3,1.66a38.68,38.68,0,0,1,10.64,10.58c.61.79,1.15,1.55,1.62,2.21,1.71,2.41,2.52,3.48,3.92,3.85a18.83,18.83,0,0,0,2.49-.07l.38,0c3.84-.22,5.95-.34,7-.93,2.23-1.29,2.75-5.12,2.86-6.27l5.87.54c-.27,3-1.39,8.26-5.74,10.79-2.23,1.3-4.84,1.44-9.58,1.71l-.38,0C358.08,343.11,357.31,343.15,356.66,343.15Z" transform="translate(-260.41 -304.49)"/></g><g id="Group_18" data-name="Group 18"><path id="Path_246" data-name="Path 246" class="cls-4" d="M349.7,360.46l-4.85-3.3a39,39,0,0,0,6.56-17.79l5.83.63a44.77,44.77,0,0,1-7.54,20.46Z" transform="translate(-260.41 -304.49)"/></g><path id="Path_247" data-name="Path 247" class="cls-4" d="M330.57,327.33a35.63,35.63,0,0,1-1.26,7.31c-.33,1.2-.71,2.38-1.15,3.56s-.94,2.32-1.41,3.4-.95,2.08-1.45,3.09-1,2-1.43,3.06a23,23,0,0,0-1.05,3.23,25.26,25.26,0,0,0-.65,3.34l-5.7-1.33c.39-1.21.79-2.41,1.21-3.6s.87-2.36,1.3-3.55a37.11,37.11,0,0,1,1.44-3.52,19.74,19.74,0,0,1,1.93-3.25l2.12-2.85c.69-.94,1.36-1.9,2-2.87C327.87,331.4,329.18,329.38,330.57,327.33Z" transform="translate(-260.41 -304.49)"/><path id="Path_248" data-name="Path 248" class="cls-4" d="M298.08,343.41c.3,2,.62,4.06.89,6.08s.49,4,.66,6,.29,4,.36,6c0,1,0,2,.07,3s.14,2,.26,3,.23,1.95.33,2.91.15,1.92.21,2.88.17,1.93.28,2.89l.18,1.45.21,1.44c.16.95.31,1.92.51,2.87s.4,1.92.61,2.87c.45,1.9,1,3.8,1.52,5.71a48.75,48.75,0,0,1-4.39-11.08,49.34,49.34,0,0,1-1.2-5.9,21.47,21.47,0,0,1-.3-3c0-1,.05-2,.11-3a20.47,20.47,0,0,0,0-2.93c-.07-1-.24-1.94-.39-2.9a57.74,57.74,0,0,0-1.27-5.69,53.85,53.85,0,0,0-4.24-10.8Z" transform="translate(-260.41 -304.49)"/><path id="Path_249" data-name="Path 249" class="cls-4" d="M284.56,367.37a91.08,91.08,0,0,0,1.77,11.13c.2.9.43,1.8.67,2.7s.52,1.78.8,2.66c.55,1.77,1.25,3.45,1.9,5.2a53,53,0,0,1,1.74,5.49c.49,1.88.9,3.79,1.29,5.7s.72,3.84,1,5.81.51,4,.78,6l-5.82-.69a19.76,19.76,0,0,0,1.37-5.28,25.11,25.11,0,0,0,.1-5.48,22.43,22.43,0,0,0-.41-2.71c-.1-.45-.21-.89-.34-1.33s-.26-.88-.41-1.31c-.58-1.74-1.34-3.42-2-5.21a41,41,0,0,1-1.62-5.55,50.13,50.13,0,0,1-.93-5.7A51.57,51.57,0,0,1,284.56,367.37Z" transform="translate(-260.41 -304.49)"/><path id="Path_250" data-name="Path 250" class="cls-4" d="M314.91,398.79a22.74,22.74,0,0,1,5.41,7.42c.39,1,.58,2,.89,3s.59,2,.8,3,.37,2.1.5,3.15a31.25,31.25,0,0,1,.2,3.21c0,1.08,0,2.17-.09,3.27l-5.74-1.2a22.67,22.67,0,0,0,.8-2.58,24.86,24.86,0,0,0,.48-2.69,24,24,0,0,0,0-5.55,23.53,23.53,0,0,0-.65-2.73l-.3-1.39c-.11-.46-.23-.92-.35-1.39A40.65,40.65,0,0,0,314.91,398.79Z" transform="translate(-260.41 -304.49)"/><path id="Path_251" data-name="Path 251" class="cls-4" d="M333.16,354.76c.63,1.17,1.18,2.38,1.73,3.59s1.09,2.46,1.62,3.7,1.06,2.51,1.55,3.81a38.57,38.57,0,0,1,1.31,4.07,23,23,0,0,1-3.49-2.56,34.1,34.1,0,0,1-3-3c-.93-1.05-1.82-2.15-2.65-3.29a31.24,31.24,0,0,1-2.25-3.55Z" transform="translate(-260.41 -304.49)"/><path id="Path_252" data-name="Path 252" class="cls-4" d="M328.78,316.2a25.05,25.05,0,0,1,4.73-2.61,9.92,9.92,0,0,1,3-.72A4.71,4.71,0,0,1,340,314a5.51,5.51,0,0,1,.92,1.22c.21.35.4.68.6,1a17.58,17.58,0,0,0,1.33,1.87,20.47,20.47,0,0,0,3.42,3.29,21.68,21.68,0,0,1-4.39-2.19,20.11,20.11,0,0,1-2-1.52l-.93-.84a2.3,2.3,0,0,0-.72-.51,1.35,1.35,0,0,0-.49,0,2.27,2.27,0,0,0-.59.19,7.11,7.11,0,0,0-1.47.95,21.9,21.9,0,0,0-2.91,3.1Z" transform="translate(-260.41 -304.49)"/><path id="Path_253" data-name="Path 253" class="cls-4" d="M349,332.41a25.5,25.5,0,0,1,6.36-1.61c1.07-.13,2.16-.17,3-.22a4.4,4.4,0,0,1,.81,0s-.05.14,0,.19,0,0,0,0,0,0,0-.06a1.53,1.53,0,0,0-.12-.87,6,6,0,0,0-.55-1.14,6.16,6.16,0,0,0-1.75-1.88,8.45,8.45,0,0,0-2.51-1.17,12.27,12.27,0,0,0-2.89-.46,12.6,12.6,0,0,1,3-.27,9.46,9.46,0,0,1,3.07.6,8.14,8.14,0,0,1,2.79,1.79,9.2,9.2,0,0,1,1.1,1.31,4.5,4.5,0,0,1,.79,1.9,3.08,3.08,0,0,1,0,.68,2.72,2.72,0,0,1-.16.74,3,3,0,0,1-.95,1.31,4.61,4.61,0,0,1-1.08.61c-.33.14-.6.22-.88.31-1.05.33-1.9.57-2.75.91a20.8,20.8,0,0,0-4.64,2.51Z" transform="translate(-260.41 -304.49)"/><path id="Path_254" data-name="Path 254" class="cls-4" d="M286.4,335.44a23.36,23.36,0,0,0-3.94-1.63,16.85,16.85,0,0,0-2-.45,13.3,13.3,0,0,1-2.25-.59,11.09,11.09,0,0,1-1.12-.48c-.36-.17-.66-.32-1-.51A5.81,5.81,0,0,1,275,331a4.07,4.07,0,0,1-1.05-1.35,4.85,4.85,0,0,1-.45-1.58,6.37,6.37,0,0,1,.06-1.51,8.49,8.49,0,0,1,.92-2.52,11.9,11.9,0,0,1,1.5-2.09,8.83,8.83,0,0,1,2.12-1.68c.76-.44,1.5-.74,2.06-1a9.78,9.78,0,0,0,1.56-1,14,14,0,0,0,4.34-6.15l5,3a38,38,0,0,1-3.32,3.51,23.64,23.64,0,0,1-1.9,1.54,17.9,17.9,0,0,1-2.09,1.31,18.19,18.19,0,0,1-2.26,1c-.77.26-1.39.42-1.9.65a3.69,3.69,0,0,0-1.3.91,6,6,0,0,0-.95,1.45,5.24,5.24,0,0,0-.45,1.54,2.18,2.18,0,0,0,.12,1.13.94.94,0,0,0,.22.37,4.88,4.88,0,0,0,.59.52l.83.6c.28.2.52.37.79.54a15.73,15.73,0,0,0,1.78.92,14.11,14.11,0,0,1,2,1.12A12.44,12.44,0,0,1,286.4,335.44Z" transform="translate(-260.41 -304.49)"/><path id="Path_255" data-name="Path 255" class="cls-4" d="M291.23,331.73a6.79,6.79,0,0,1-2.42,0,5.16,5.16,0,0,1-1.25-.34,4.3,4.3,0,0,1-1.23-.7,3.66,3.66,0,0,1-1-1.31,3.31,3.31,0,0,1-.22-1.94,5.35,5.35,0,0,1,.56-1.6c.12-.22.25-.45.39-.66s.3-.41.46-.61a6.64,6.64,0,0,1,1.25-1.12,13.81,13.81,0,0,1,1.24-.72,1.51,1.51,0,0,0,.52-.42,2.24,2.24,0,0,0,.33-.43A13.12,13.12,0,0,0,291,319l5.6,1.73a11.38,11.38,0,0,1-1.09,2.54,9.34,9.34,0,0,1-2,2.41,7.42,7.42,0,0,1-1.44,1,6.71,6.71,0,0,1-1.52.54c-.38.08-.63.11-.85.15a2.27,2.27,0,0,0-.59.19,4.79,4.79,0,0,0-1.1.84c-.11.13-.17.14-.22.29a1,1,0,0,0,.11.62,3.85,3.85,0,0,0,1.28,1.41A8.7,8.7,0,0,0,291.23,331.73Z" transform="translate(-260.41 -304.49)"/><path id="Path_256" data-name="Path 256" class="cls-4" d="M291.42,338.21a12,12,0,0,1,4.37-2.55,10.45,10.45,0,0,1,2.66-.46,17,17,0,0,1,2.67.23,10.11,10.11,0,0,0,2.13,0,9.87,9.87,0,0,0,2-.45,13.65,13.65,0,0,0,3.65-1.95l2.57,5.27a18.41,18.41,0,0,1-5.59,1,13.25,13.25,0,0,1-2.88-.25,12.49,12.49,0,0,1-2.66-.85,15.29,15.29,0,0,0-2.09-.86,8.2,8.2,0,0,0-2.2-.28A11.2,11.2,0,0,0,291.42,338.21Z" transform="translate(-260.41 -304.49)"/><path id="Path_257" data-name="Path 257" class="cls-4" d="M371.52,411.57a9.84,9.84,0,0,1,1.13-4.17,9.34,9.34,0,0,1,1.25-1.82,8.73,8.73,0,0,1,1.67-1.48,8,8,0,0,1,2-1l.54-.13a5.21,5.21,0,0,1,.55-.08,5.41,5.41,0,0,1,4.56,1.72,7.42,7.42,0,0,0-3.08.9,4.94,4.94,0,0,0-1.71,1.72,7,7,0,0,0-.82,2.17,14.09,14.09,0,0,0-.26,2.34Z" transform="translate(-260.41 -304.49)"/></g></g></svg>