<svg xmlns="http://www.w3.org/2000/svg" width="271.934" height="111.69" viewBox="0 0 271.934 111.69">
  <g id="Group_157" data-name="Group 157" transform="translate(-460.083 -994.87)">
    <path id="Path_373" data-name="Path 373" d="M665.634,1048.706c-2.919,11.887-5.664,23.063-8.407,34.239-.729,2.972-1.535,5.928-2.157,8.923-.765,3.688-.305,6.85,3.705,8.683.944.431,1.391,1.942,2.487,3.585h-53.47c.962-1.288,1.413-2.561,2.246-2.9,5.167-2.093,7.473-6.443,8.682-11.3,6.492-26.081,12.814-52.2,19.161-78.321,1.188-4.887-.379-7.862-6.228-10.791,1.651-.927,2.75-2.078,3.857-2.086,16.464-.115,32.929-.08,49.5-.08.044,2.47-.9,3.254-3.172,4.213-2.52,1.063-5.449,3.6-6.158,6.07-3.406,11.887-6.124,23.969-9.069,35.986a7.7,7.7,0,0,0,.1,1.633c6.291-4.932,12.255-9.6,18.21-14.278q14.659-11.517,29.3-23.056c3.916-3.1,3.915-3.737,1.244-7.733-.414-.62-.155-1.685-.217-2.691h45.478c-.971,1.519-1.477,3.277-2.288,3.43-7.806,1.473-13.188,6.854-19.032,11.439-12.086,9.484-24.074,19.093-36.453,28.93,2.294,3.175,4.5,6.281,6.76,9.35,9.1,12.363,18.056,24.829,27.4,37.008,3.287,4.287,7.537,7.837,11.3,11.772.556.583,1.26,1.56,1.1,2.141a2.7,2.7,0,0,1-1.961,1.47c-7.022.781-14.047,1.656-21.1,2.017-3.285.168-6.647-.608-9.938-1.169a28.3,28.3,0,0,1-19.124-12.02q-14.4-20.461-28.941-40.823C667.7,1051.305,666.878,1050.315,665.634,1048.706Z" transform="translate(-28.707 -0.736)" fill="#db001b"/>
    <path id="Path_374" data-name="Path 374" d="M530.543,994.87c18.617.15,34.309,6.525,46.824,20.3,8.458,9.313,11.414,20.5,11.284,32.781-.258,24.3-18.982,49.732-50.908,56.409-15.513,3.245-30.765,3.312-45.721-2.656-25.725-10.266-37.816-35.54-29.165-61.983,7.891-24.123,25.83-37.05,49.839-42.514C518.52,995.885,524.587,995.622,530.543,994.87Zm21.566,46.361c1.242-15.255-1.913-22.169-9.391-25.872-10.759-5.329-28.442-.391-34.661,9.87-7.555,12.462-10.986,26.274-12,40.6-.773,10.983,4.651,18.51,14.22,21.512,9.62,3.018,23.179-1.473,29.16-9.644C548.374,1065.493,550.92,1051.272,552.109,1041.231Z" transform="translate(0)" fill="#db001b"/>
  </g>
</svg>
