<svg id="Layer_1" data-name="Layer 1" xmlns="http://www.w3.org/2000/svg" viewBox="0 0 646.98 513.66"><defs><style>.cls-1{fill:#74a7eb;opacity:0.43;isolation:isolate;}</style></defs><path id="Path_285" data-name="Path 285" class="cls-1" d="M361,445c-10.46-12.26-34.22,5.59-58-7-19.82-10.5-33.27-38.76-27-59,9.38-30.27,60.86-36,59-46-1.68-9-42.56,2.14-67-21-16.14-15.28-21.27-41.86-15-62,13.17-42.34,75.42-52.06,82-53,72.45-10.36,93.19,47.78,188,48,22.64.05,56.41-.29,87-21,15.8-10.7,19.18-19,44-39,24.27-19.57,39.42-31.77,58-38,57.85-19.38,128.82,26,163.93,70.22,9.14,11.53,14.38,18.13,18.13,29.24C908,287.75,874.15,310.54,864,376c-7.81,50.37,3.31,94.45,5.22,101.7,11.57,44.16,27.29,51.67,23.93,76.76C887.57,596.19,837.9,621.38,815,633c-66.3,33.63-130.28,21.6-148,18-33.29-6.76-84.25-17.11-103-53-3.71-7.1-10.44-23.4-25.76-43.54C527,539.67,519.77,530.43,509,529c-16.75-2.22-22.89,17-43,25-37.94,15.09-101.7-19.32-109-58C352.58,472.58,370.46,456.1,361,445Z" transform="translate(-250.41 -142.4)"/></svg>