<svg xmlns="http://www.w3.org/2000/svg" width="286.776" height="309.956" viewBox="0 0 286.776 309.956">
  <g id="Group_109" data-name="Group 109" transform="translate(-270.556 14.215) rotate(-24)">
    <g id="Layer_3" data-name="Layer 3" transform="translate(219.322 172.582)">
      <path id="Path_298" data-name="Path 298" d="M316.78,172.582a71.735,71.735,0,0,1-36.124,14.649,321.183,321.183,0,0,0,12.653,31.119s3.353,7.14,18.466,35.565a86.118,86.118,0,0,1-36.591-61.9,59.813,59.813,0,0,0-9.917,6.5,60.788,60.788,0,0,0-14.7,17.44c5.091,14.616,12.31,23.2,18.124,28.383,10.613,9.468,22.252,12.721,32.145,27.358a60.805,60.805,0,0,1,5.13,9.233,46.644,46.644,0,0,1-14.021-1.026c-16.451-3.79-26.088-15.742-32.145-23.254a86.861,86.861,0,0,1-16.757-34.539,88.871,88.871,0,0,0-17.1,37.617,169.36,169.36,0,0,0,34.539,35.907c23.253,17.869,42.938,23.071,42.062,25.648-.984,2.892-27.262.7-50.269-14.021a97.163,97.163,0,0,1-29.751-30.435,121.541,121.541,0,0,0,0,55.417,189,189,0,0,0,27.016,11.267,223.435,223.435,0,0,0,24.964,6.5c14.87,3,21.868,2.938,21.886,4.1.027,1.73-15.339,4.738-31.119,3.762a115.822,115.822,0,0,1-35.223-7.865c-.657,5.957-1.838,23.829,9.233,41.378,16.6,26.319,46.576,29.431,50.269,29.751a52.246,52.246,0,0,0,43.772-49.927A60.529,60.529,0,0,0,378.8,394.122a70.011,70.011,0,0,0,30.777-23.938,70.85,70.85,0,0,0,12.995-41.72,71.673,71.673,0,0,0-3.42-21.886,67.649,67.649,0,0,0-6.5-14.021l-23.6,19.492L365.806,327.1c-3.836,1.081-12.348,3.189-14.021.342-.932-1.585.592-4.14,1.71-5.813,9.243-13.833,26.831-20.472,38.984-36.249a63.979,63.979,0,0,0,9.917-18.808,30.3,30.3,0,0,0-.342-20.176,30.72,30.72,0,0,0-16.073-16.756c-4.832,12.825-9.508,23.547-13.337,31.8-9.29,20.032-14.333,27.145-22.57,31.461a34.39,34.39,0,0,1-10.259,3.42c.982-1.837,2.493-4.591,4.446-7.865a195.484,195.484,0,0,1,18.808-26.332c6.547-7.868,15.512-21.576,25.99-47.192a36.925,36.925,0,0,0-19.834-21.2,83.641,83.641,0,0,1-36.249,62.922,151.531,151.531,0,0,0,29.409-62.922c-7.212-3.9-14.965-7.805-23.254-11.627C331.413,178.541,323.94,175.385,316.78,172.582Z" transform="translate(-219.322 -172.582)" fill="#49bfa3"/>
    </g>
    <path id="Path_299" data-name="Path 299" d="M375.266,529.836c.7.344,1.418-.821,3.42-.684,2.925.2,3.993,2.87,5.471,2.736,3.212-.291,4.1-10.943,4.1-10.943,1.742-20.82-2.663-70.857-5.471-70.446-.233.034-.223.382-.684,24.622-.408,21.439-.434,22.071-.684,23.938C379.243,515.3,372.945,528.7,375.266,529.836Z" transform="translate(-53.813 -65.268)" fill="#18775e"/>
  </g>
</svg>
